<mxfile host="app.diagrams.net" modified="2023-04-03T19:34:40.988Z" agent="Mozilla/5.0 (X11; Linux x86_64) AppleWebKit/537.36 (KHTML, like Gecko) Chrome/109.0.0.0 Safari/537.36" etag="XC8RRmtVMJYB1sqSFoNW" version="21.1.4" type="github">
  <diagram name="Page-1" id="Z4j5c_pIPHahWsfzkUYX">
    <mxGraphModel dx="1382" dy="740" grid="1" gridSize="10" guides="1" tooltips="1" connect="1" arrows="1" fold="1" page="1" pageScale="1" pageWidth="1100" pageHeight="850" math="0" shadow="0">
      <root>
        <mxCell id="0" />
        <mxCell id="1" parent="0" />
        <mxCell id="sbZIVBN3rdydgRw7UAop-1" value="" style="rounded=0;whiteSpace=wrap;html=1;" vertex="1" parent="1">
          <mxGeometry x="20" y="20" width="900" height="810" as="geometry" />
        </mxCell>
        <mxCell id="sbZIVBN3rdydgRw7UAop-2" value="" style="rounded=0;whiteSpace=wrap;html=1;" vertex="1" parent="1">
          <mxGeometry x="320" y="60" width="310" height="161" as="geometry" />
        </mxCell>
        <mxCell id="sbZIVBN3rdydgRw7UAop-3" value="User Interface&lt;br&gt;Single-Page Application" style="rounded=1;whiteSpace=wrap;html=1;" vertex="1" parent="1">
          <mxGeometry x="360" y="70" width="250" height="120" as="geometry" />
        </mxCell>
        <mxCell id="sbZIVBN3rdydgRw7UAop-4" value="" style="shape=image;html=1;verticalAlign=top;verticalLabelPosition=bottom;labelBackgroundColor=#ffffff;imageAspect=0;aspect=fixed;image=https://cdn1.iconfinder.com/data/icons/ionicons-fill-vol-1/512/logo-angular-128.png" vertex="1" parent="1">
          <mxGeometry x="370" y="70" width="38" height="38" as="geometry" />
        </mxCell>
        <mxCell id="sbZIVBN3rdydgRw7UAop-6" value="" style="shape=image;verticalLabelPosition=bottom;verticalAlign=top;imageAspect=0;image=https://upload.wikimedia.org/wikipedia/commons/thumb/4/4c/Typescript_logo_2020.svg/480px-Typescript_logo_2020.svg.png" vertex="1" parent="1">
          <mxGeometry x="370" y="142" width="38" height="38" as="geometry" />
        </mxCell>
        <mxCell id="sbZIVBN3rdydgRw7UAop-7" value="" style="group" vertex="1" connectable="0" parent="1">
          <mxGeometry x="80" y="320" width="150" height="210" as="geometry" />
        </mxCell>
        <mxCell id="sbZIVBN3rdydgRw7UAop-8" value="Documents&amp;nbsp;&lt;br&gt;Users&lt;br&gt;Roles" style="shape=cylinder3;whiteSpace=wrap;html=1;boundedLbl=1;backgroundOutline=1;size=15;" vertex="1" parent="sbZIVBN3rdydgRw7UAop-7">
          <mxGeometry width="150" height="210" as="geometry" />
        </mxCell>
        <mxCell id="sbZIVBN3rdydgRw7UAop-9" value="" style="shape=image;verticalLabelPosition=bottom;verticalAlign=top;imageAspect=0;aspect=fixed;image=data:image/png,iVBORw0KGgoAAAANSUhEUgAAAQAAAAEACAYAAABccqhmAAAACXBIWXMAAAsSAAALEgHS3X78AAAgAElEQVR42ux9B5hkRdV2T1iCJMEACIKBJJum7+2ZJUoQBAT5QUWRJLs7fW/PLEs0gKKC5LDTdXtml90lKaJkTCjqJyCfmFBETBg+UcwkBSROh/nPqTqn6tTt3jyhp5l+nnru7e6bb9WpE97znkxm6jP1mfpMfaY+U5+pz9Rn6jP1mfpMfaY+U5+J+2TnlzI9n7oos0vPzZkgUpkgTjJhlMBSZUJcX5dmj+eONX3hvZnZ+XPh99LUw5/6TH3G45PLFzNBQen1MC7qQYkDHJZtMCjbYYB2hLHqxPWxvA4QMG1wLjiPasf1QAuGIl1XKZONB6Ze1tSnhQbePJWZtdDMdEHezIZ6lo1gEEaJ7vRuxi1ldl44qLed0T+4TucNC4k5fx8dH2fzCAdd0gkNB/uKB2mcrA/XswkIiE1AIKxjU3AcWEb6WOs3FgpJe4DCB64vJKEQ0PUFK7nOqU+TfMJ4MJPNX0jrprMZya50J9frkVQn+XeahSIzAEI9K5nt8dPdO5CZ3r+46e8/iIcyYX6AO7NRe819w2xnZle4L5xdO81MC7/ppmfBdj0wY/g90oOgU2+rByrsF+nfzfZmoLThrB3Q8+QBkutNMjlaD+kazIDXx2xrqPrHxfXhWNvDcfaDbT4E+50F238OfvsDrD8Lx34a7uMZ+H/tW6SeCczyafj+f9BuhmOeAve+Fxz/NUF8UQPhVcro56DvN8H7zexxyeJM0Av3VJgSCBOoRqrMay9IMvscN2BmLNPR2uhFYcemTgtqJc1Aq/M5qHA+qKdFVg/NcUzroFkL1FTd8UlQqEy2j2bVNTjPqNnMke6g3oDH6yPVtmPcBI8RMB00WDr0un5uqr1eSKuNoIWwXS8si/AsvwnbPQLtRdhnpHvBFSM9J1850rNw+Uiub2gkLAyOesPj9ixcphueE67jP9B+BG0ZXMcCuP494F42q7t2oxV00P1m3jHvmsxsMBW6oykfwth2dBhw3aCqvvHU5XK2bg9W0MnSn5HLUe1NcBaaBi9xvVyc6AY23zSjipbau9bC5gvMrNppZkdtw2qtIZcfMh0mP/odQ8/qCxfBsdmxpfC8qEq3r+AaN4Jr2hmu7yDYfi4sPwbfL4JnNwTLK6FdDdssh2NA50+ugP8VLPH/T8MxPwrf+2GbE6C9B/Z/J2wHgyOZBed9M2yzGZgT7au43vVh3zmw30dh+y/B97/BcWvdJy3VAx0HvB7ocUkPRtimAscehmsqw3oVzlWD7zX4bx2bguPAMtLHqkIrUzNCoX8JXM/ykW4SCnDNj0ND4XQuXMM7YfnqtNAjbUn3SWNaJZk5C6eEwWjNKs5etR1dz2xt9duWcCC+Fl7EHHjJR2Nnw9kF2vWw79dheR/89wCs/xq2+z38T009DL//Sv8Xqx/A8i542V+B/66nAXI+LE+FdgzsdwD8Pz1EdbGQrLcSm7fN2JGJ1hiM2VG0g3ftTJvE7hsaj7iecVEtTQ02EGpqJrReODde/72w7T9hOYyd3M6up1xlZ9m6hr+ffNXIHNqm+6RlNEgXmxlUDyIcnOpFOP+/4dgPwm83wffL4PxnwH8nQDsKzh/Bcin89gccUHhsPJYZ7HrWrYRmoOOAr+pBHtEAjfSgHaGlboFZjrAwCHhA47oe1Epsa/4zS3s8c0y9PR2Lzwfn19eDzylyQoGFlL7mSD0Gx7zFPFu1bUqr6aD3bbWxKZ/BWtmwQprGYnZLqdfw+8aBUdNOhQf/WVj/mbbx4IUaSX4ldfBl+iXqDgy/5/oX645sWz+3JbDNEr2dfumoHsL+ehCgKgr/gz2IHWYYzv0s2aZ3w4u/Fn77JHSIo0MtHJIN0/c0x/gTOkJjQ7cZ30LRE3IrHPgwowR9xcycE5ew/wLVz/bUs9gKzvtBuI6roKFQq/iz66CeXWlQ6E6OAgHWcVk2zcyGAc6I+h7xv2RYbxsr/K+Cs2bgBpGZsWnmxIFtnvlyetaL6bflRnCYgWtm3EgPNjsIwzg14COarSOcpRVqACgoyigsdIv0tZX173AsM/jldSUkpPRx9f763G5wVwLejwRAIIQOCwzapoLPQl8j3Cv3J9jnWdj2y7D8ILRNhSDQ/hEU2MZEQ39IMjWwVznD6dBQYme4gB5kqqO/FVoML/+mQKuRCdlxPEAHzcs3Lw5emn5x2MGxA1X0TIOdT3fAhBpum1RpFtLbhG4wDJtOozuP6/zahlxsZlOaMfX5dadUf4VzfAXWPwHtQDjea+vvVXvg0a/QbjzuiRUGdp2clNaRBjPMe879itQItoHfYzjfHegg42uxg03fq75+M3BlZ4/rZteRusHDM6WZ7fUAMcegwRbZWbZqnq/WCFBwlPVzNDNqmZ5JNaif1UcCe349+1dY2JjrY+FinnO3FMhSK9ECfVALZ/8eStbWt++JhDkOYNyP9zFCUfeViu4Lsb1P7k810hSqgTEZKrgvXwP891fY/3LYf3rKPGjPseanIx9TgqBRmEcPCKc2oVpbkoN+G7JB74KH+ALPzqxG0kxQNgPXvKgg9tU91+GUtQVZDeQWis4dyH2sKskzhev4PDOZGUILFNPh9Oy7XHdA2B5V5O+Exo5EG3yLBjZyu3VYUtgpdBGJjtS274Tfvgjtad0BcTbSmonuvGWaNfkeWV0eCb3BawZzYIWgFowVUskrNCAq5h61wKzxMYUtPhLIZ2yFCgsaoWbH/uxuBK6e0Z2qvcDY39oppwW5ehm2ewKWD8E+34blDdCG4PgXwPE+Buv9cC0nwPp74RiHwvEOgN/2ge9vh+33gu/7w/rBsM2R0DCqgJri+bD/VbD9N9AUDHAWh+ths8hpS/qaUXCRD8IzI4TZoCeJinEoLh8x/VDdCtfxdtG/tSDI5pc5rTY/5SPIhCLERvZtR66vKAc+vEz1eWjP2I6OUt108rKZyRNPUgc8QI0QMKpfRLNQnAiV1+/w3OmDmLcn9Zg7QaRnJ9sR7GzozRB2hq1SxykHpDZyB9OdK0qehH2+jp0Y2m5wLRvUCwRt23f0FMhMWKCdi8fAOX6MM7wZJDh7KeqkbmC7AWkcXXRfNDMbIWVmRzdDmlmWzB/b2FwacjOlGcAVMoPKpDF5AsIXDPy87D4VIyQXW3+Dcfypp+C/76MHHo6/EJYHwzF3gH02Dguqc4z8S+g8fh2cb3cMO8K5Lobzfgt+/5fTLJexQKgZs4g1GTlRKBJoxm+AfVUL/jj5JhxvP+kjYH9NNi6ttS+oZQZ/Nm/V3nZp08KDPAIezj344LmjB5FV42t2RrMqpCIVMmH7sob7sOrHdugc6/RyPgGv4W+6+ba/URfZvLBqZpVNBLKZyVMtZ0I3C5LAGbYCQWsxy/keHoH9roX/j4f17Rp48N8N+z3A10wqd1nOsNJuJZOnbLWRdEjNdNqXYJv/wrEep3j4Q/D9h7DvvdDuht+/C8f6ISx/Adv+Hdp/te2Naq84nnMMat9ITZsc+j0o83wioyqzTwa3JwH+OzgfOlnPgO32ge03X1l/6Yo1UAlDvB06YmNQgrjsoJCv9otoLANjFCKzbrbRDjq9H/6WzRdX5oPaGNocuOdT4Bi3wPb/0DM8+jL6F7NZZCagWJoyioWB7oO63xjH4Vfgt6zQCDo8Z25evdJmfeEljVycGr4fBO0+HpChscXKvupF6rixKctm9i7pF2NnFNMZ0Tv9KOx3H2x3MyyXwP6gOqozYXky7BfDci5sdyK0E6DNhZfSCw1/XwDbfRj2/ww09GB/FY6BDsbHob2I12PPp21RYU8aTYBMEuPoCqPEn5X1fRnNggcpDyY49vPw+32wHESbEq7r+2wDW60l8p8H2eLGIZYSLtr7r2PsSRH2WwjtCPgNZ7wdYd/Xwe8bISIOB1A2NSP15DVqD4E7G0J7DTSMfhwI5zoRzvVpWF4D7TtwXf8H/z2vBTbZ5uwApHt6wURf4B3o55zsms2Xpq0wpErRE8J0WNs5JLOIAUazo0szexSuWGWf2/fEazPZggnv5iKXB8BRJQrjYggVnsFggxBmsilsiyHARbDNb4wj0AhT0mwq9WajiZLgu8bnYCIc0JfiZBshCPSkN/2UV4hvAOOjYZ/1fLe/5exP8EvfCdpttqMbZ1DFG/hGulZ5hpeDBm1FaL+EB3odHPf0AOO1UbK9hpAef91o+SlQam8E7U1wLXvCed4H7TT4HePlX4Pr/B20F7hzOB9FycW0jbPRs4sDtoelY4lnWJ4x2UHGjinrg1DGM477LFxG2yb/ht/ugOWHYbk7Ql/X+Gan37umOIj14Lq2hfYuOO+noN0G58Ww4FfhGo+H9kbQ9toaDCyDDDQoxDb2e2gV+aSBTDC/3k7eff5QZuYCHswlKxTCyA5olzhkEZDmODP7i5nu3sFUn1zmQs2RxVSwAxqvrS0V6psG2+8DbRCd0Kw1molJa14uqmH9L0bQk4/g39BOEdpGh3X0iuhXS332PeccK+GC+YN4o52iE3wUbvp5QmNVyQNvnUlGpVbaIcWD3khe9Qi0q+D/ufD/jmGh2LESrUM7YQiGaiCw5sF3kErZYZBrqkMi/wgK2x6sRggnl9cd443odArRQRWpGwMd+1bD1v436uOIUNGr0nkWWEeTFn4c6qp48WobxoPn0W98AfD7c7D9rdCOg/+2rL+2gQzdm4P+GjRbWyAy5RgubSIwnA9gYbxtusUEE6ZZeu8TF6/gmdcjEClOrsFSHCPvXrg0s/Ps+Rpui3kCbBZaGLY9v4bgtoc2lErqPOMsOFMQj1uQ22uzgLftMGApA+m1giPvIi3ZeYMISc7s/qFrM12FRRR21deqzYiUD2FTOA4+87tRCDtEoTZxPF8I+Y2GOYwI6z9gsyDbq595e9ov1jIqPw9+DmWR5NsBXuS9rLLLh+biw0YT0M4pE3f9O/y2BP7bP2zoOFPthF2nTpHYmSHUsVgzE/TMLWW6Fq5gUKOwou1m9bkOKAcCCZOOgAdUvjF6MGsAObuEaGbEaik0BBuVtY+BPN1sygSRh3ZzXnVh45PzrcImEmz7MAnQ7f3zaodhJ3V+M5AovNoN32evQ9qrQ7uVeKa0EOyQ8gcCwvozlJrUbLsv4ueD3vpZjwS1hXCvKGdgVPtnQbFzroPMDqM9FCTgSsn+myFfQ0eqn+8B+30BTbQeiyJMyi4CY/1C+n1bky5OzpLagF6evLw1HITypeOAFLP+BzD8Yrz6HLYS0tLYVLKj/xTafNjv1amH3k6ZZG3c0XdduDhz3P7ngc3XuJNnaSB09Sc2K810YmOa7NWvMl0rcRDpeykkNowjZymaUdvJ0dTWwLmEQuNtGNIMdagoeUw7x1irMSaP1QwCpwlpX4gBKmk1/8dwnA90xck0T50mL3MoEGjckbL0vSu2iEqb9ESh1zYKV7XR7NgWiEw4m8GH6xyZwHyJ/FK6txKdZ9AmWLFq2wPPNrsKLWpFqq9x6KlXwXVuC+vdGO6DY6Mf4SOh8dovg4Yh0a8EBg9xJ6x/DTUi2A9MQg1rvlhHXKJkntk/6YLvr5WaaMo0aQsoRZjvRZoIFq9BoCyJSoXfZsH+nzPRgKXkx9L9ecQX5p5Z8C34vhX16U45YU7aT1bAVgOR042hFt2JC4MjFm7pg07KGmCjhYP6Mfz2nr3EbE3qejvP7OxbQLVPOhdDp7pZR4/RDIz6aJriY7WHlB0XyEQWp162pbMEsw3SQ/mF5XAQkP1JwqkjDWiil705tCPgnEsxEmBNHM9USAx8F0NLCFeO1VGpgdPBKvB0MK9yOrpSyswhp5eYtdpIBdY2d27+mncuVM/peXWSGdDuhK/K5ApOfV99DdHTAHbS8XrtpE0uC7QvIfkJ/P8v9K9g9AMdjc5HcpX1t7gIjojkLDTRH72djPEbwNezodGgvgrHvxSOjY7N2ejwbCCcyER0wCx9vyDYugpD7FT0QGuwfQ59Q4ww9TRc8hNQ+HRYOwlBu4W2p50oRP/qWTA0+Wb+0N2AVmu6okGcnW7FFxawre+AOSMhfdf/w2CA78c1sB/bQjGzOcRciVNR28hGbDgDj8any6mAHIIyKaI0k+54yEWZg4au03YdQkBDni2tpqEHYp1zCX7bEO7vHdAWwX+/RuehiTJchYIA4c1nhPOH9IzV1buYtIlEq/Q86GbHizLd0SDP7vpZrCxJijr1Bhhrh3t4DbStEVKMyxCXkdoCGobENlgVMQfPmpRO3BaKPrAygYCOPH5XsN1bYb+bcLDufsbnbYjRxyEQpiB2KE9GGxrIrvYXlQPGR5iQ47BA+RGSs0SRiqUyPIl98C+w7y2w7+mwfYACM63FsWaw6YlXWA1S/9dXNCHtWEa21CHw/RciKlNOAajw/Q4boa/xI8dR/25jEwj7eq4wSYBDORHmCym2DwP0VegoIXVn2FOFjKpbJimJ7RLMXMP9tlqYZCRZRC7vEzOQCqZDOCvolPgy4NxqWzhOANdwIOH1+wMdxkqGQhPKWgK/gzqZnAXHWgD/HQ/bvNugyZLp8P/roW0YpBB5DWazdtIidJ58KO1eFlLRJfAyCdNv2G860oMLNAjUUObAvucHmMwUqbdKgJCLIRedczVObJpqmEpLzcVqPTI9jobjfQrWr4Xlt+H4P4ffHtVIxThBTAA6E6Elz4e4jOC3SD2JabpwjQ/Ab9/UeQ+xOg+2wTTe/UJEaTZQpbvMYOik9GnRJ5KGnApSYMO5euD7NzRACQRAwM7QWKA4ZQ5BYyjziECEkhPO7RswdsSE6hguLVKEl7NG+jBsp2D9QNhufeFvagvFTB0anIJZn6+FWjsL366ohO/zbHQCEo7D83dZk0BHgHAcqDOFAGnnSTUbF5t9+NekikSDHwZOnNxnZnaNrhPAFR3nr5Bg+A0isjxJK9Ir3WxiVfqOBjb2G+C4h8N/n4IHegOpj4/pOHTsACkG6JPKhDtZ4suXSJjxsB4UWkVLHoRrugMa5ot/AtoHA9NZt+jqrdc4ZsHsb6MN5AjLSYco2+eRNS80j8EKhFmHsw1LVhBmjY1aJwQRUBSizRsln8WMRxayHoCnf4nItS+toDFSEP0PS+2zsqjMWD1Pg+RmuKaPw3NCqPPrGkcAdGgtkxV2dE7cixGITmNB8wi2f8g5TJNy4EGQVcOBv7rNovj8GD5hT8xMzXgPA+hJfk9+h5mpaECHr5kq8Z4SiXOZDe3HJFwYgi1NYB0m1uZerIakc5uPHTYz54BwlujBMGvuYpzh7iK1f1gkf4wwJFXHUGPopFFpQ36YvL+MCxNUGGeTduftHsCOvzsCduD/70H7r0FsGbSf6eAiSSRS4gUbqK/B8RP01wiocmgTWaizEKrQCI+lZFea5B/qPP+Bfe+Ha7tWYwMiDWGux/tr7jsTuuJwlXQkupecZCg2brMH2dSRISLSfoTdianQaj6cA4E/zzEgSKTeVuk+yyLpqcrJL4GXXsuQau2ArJpMQEV5DzpEadTpAoOwDHrS+HbUf+D/78DybGi7BdFgZx3MmfwW1lnM7zk/lOEwpY5a9JZQgC6E/x83EwVfi5/SO0qtFvp2OsHJDYaDhQGZEt+A397N9zQ7z8K+JEw+zyeln8FuOiSbXM7IUoYPC41Aw9dpwrx9Vi9FBkjAh82aYuzADAnMfCXukDc2HPwMDzWe7w+nwyB2wOetup+GCmNG4NloW7GtbByLGgFYpQw+Svk0WXAs5S1yzkvqkElDnPUlYLwmhssYhQqny4YUvbBEEgLbDts8FRpegQvgpR6GXudGs7rUdHC56/wrbQgqMDOIMyHcdp4GBMefAccpwbU8zk4w/SzIHuaZRWYBBvGaDxwZ0gpimRxkhKqxyZNGUOffoKMNgUkNBAFoPUWp3ckBJGfPreC3qzhvwTjVvLyD0RQEIymUJfcHgfdfys49EPzq/aIPtzu8P4Wf51vIu7yf98P9voj3Qv4MEQXTeJBhEgL3QNvICxMK4dIcTj+yx5EBx11kch5J7LLM++bBTzf8ATuTsSNIpsYax16HmPFC+P86tFE5/ZfQdJyrXqvLKx/dTmHj9EwyQYKlKjLxynYQ2AQgFHQaAYYz85mwTXeYgsKuKO7bZcwI8zwWLMpIVR/Wd4VjfQ5ndIOn0EkrFTPDp2CpYzBA3CysXMd1mYCVMKVGUx4FmGWIsU+28sK5mDYr1WgfO9Ip+toB8P9vyVksnMljeo/OVnc+BJ0FaGHrcYKJTAdIs8CLSjksQRtjCOA+umC7Rw2S0EySnvABgarNnwiETJxsxohUqx03izkgctk76YW+L7dgCcdAZeJOhZNGMB5LD6EziGViRNIodLgjsvNwhhbZnmUitqilUlJHJqDVDQKRiTiscwLqZ8WHNYw4UocyvgE7/sy+JV5YUfg+2jjMhNh02BbzBIYl6MTm/AvGnIl4Hi6yw1mTZubU9i2m/Br04lPQFsO9zPTyAISJZ+6/aJ2ELPzgmBsiFJczFTnxaZz6AJsGbCZYzIp2WJp+ug07ha05Kya2bK+e2DqdZmP8ApzgJbWtgISAxsIUDOmI1AS6Jzqt2KmotnO+Cdb/E5oUyop4cFZdhn2OpAfUKWd7i8wi9Ta7YAil5dnIASCIG8uBHHDr6Aga444y4nEPpBOAGB4cJXuzJsQCIIi9wS8cYwqjE48KQVLmVNyxnwXX/jlYk4FNKMqZoO8Im+72nGoRhwaFLb1wuWcWwH+Hw/fHCItf9jPzxvo5KA/CHRp4dpX6KZp/H5LhVuknE3iJTo7SwPa3G3NZpaDfxhFthEDyw65CaX3fyT6BpkDQW8rkogF9Ed3WXk++Q9lPZUkOgTMixVoLdvALFck5S8zDgn13RftKqI7lUA76KGnWgb8C00EmAOnB+rIO+UTqdH6hrNJpM6iXgTxG2ncXiqgpLTaOTR0zHg6i8ezwo+hgI6ov7iPdTrjfgJRqMnLgh32to9T6QOB5vgHW76bB43nWx2NykD4k6pfDrO3B95uYDYog0QJenHjvl9avoAhANUhpAsYc0GbPt/Y7eql9DhOKGBRwU34ZpxgJyCqZtZvKxpZRlwoAioeeI9uIASFHwyB5wQgMNZwKl0ymgV+nOpJvgh08nzOQ2pIg+0ykX6CTnut2sP4TjD4Q20/F47ybhM/Ccu65tNka9R104C6C+9zcOjztbFe0zwfZoVNJZZcbW7w04j+f8ekvfuaqeUekpf0VMQQSm0KzviR49ZGyBiJfDaKUaYv95mStNX3BwNqVh0wcX6+/BbjYGOX2iFgjFb8qVKWy0QiSb0oQhS9AkrZZ/ZfwA/i4nhkNJdR42nbjZReXSbD9NCQsfyNJbv0pkcYZ/Ms5itQqATCT5pmkaNdk2izcK9KGH+fnUbhJQ2AH2oU5Og+fC8Xsy5IhalwFG2t6iPDrYz9Fcl6jTEkZOu/us5rwhQQPrvi4GUM2QpPHuewUzM0/12AOonEEClm+OicAvkjOHTloKxSD/idc/JYS2RT6GWC8fimlStYYmTUJ1f365sg76HkozNl/i+wMOBscfOoib/DDszwQmXtMqEiGUtXkfh4NzQMlU8CHmVcR3v/tcL9vrHeqydnPICpJUCA68RkTovM00dr4antWEKAjuEaD9m7oC9tQ/+9kQJRAc7bNceuKnH9lX4AZB7OJgKkjOJy6soSqMYz5W0fEPiTlqtYrT6AbfaFRcoQ/qwlbiD3bcXIBO0Gcyt8Cgz9FlEkC4DDqrJ0upGOfKc/8yImnk18CHz/eaoN/xONVdI48HeIz/gH1b3hGxwoNsqPOQWieIfevGcjSK0zIiXh2tRRugpJ+NDJ1X5tkFKf9YKpttyM4w1JdQ2ZEOUUyUiEMDcK0t5WaUG48hECWpK+QYN+lh10WzpEyeUSvs1BQrpiTcoDAf6eQ49AO/qA1OrpUccvk9f6ML7WV9IPwzL+P1qTqMyZbd/A3dJgabYAxFVjzIBslhBjVfAd19m8Q22e4Hfz/B7KnhyfQWSpV+GEHMaekH6PV+OaAn158Rzf7RmRUJVLDpC3fbmHUIldmDB1/pUwKmngoqSOWklvDGQ0oBVXdbXxfgVX9WW05xEFV67DRI62g+oeaBETb8PeIF+u9dCEQpsP6M6RRvdIGf0OnqXSqwTPBqk4z2f4NG/gFWAjAPpjd+DDBzYd9Wvjx7QceEC4uMYitT3AepCNirBm/Ctqv0C/GURNmpWb8AWx7pD8mi+Nh+zN8k2Z/EfO3s39kspo43ikGP9/ctnAzT5BaXGmhmV8MfiMMkdoc7u3NqUQpzzMMy831rKVfdlJuGR/IOoTYUpDtYcqWQ2LWD/Bs6YFt3ABic2BrZD2mgVJOmxrj15QEi1W4ACqsxzwh5uYV/UkhtiFxrDb1AiFoq5IhiorR/HxOb2IThoK+MQYHiRTFfWn2rjLQA203mr3+jLnkLrc54Wo4SKRAUYDkTlL9h1vFs+0JAIPprhCdWeQLQ6cBdM0f4vU7yPEz3CBP4RXbpOrOICLq+GdLFGGaJ8L6U2JNEPs3Al2VV1ERaYwRo87HwTBpZHeS1xtInID7bSExDJVdHobGlFTIzPkgC41wfjEz6/jLxiL0Z7nxeAa/kRBKZXdzHPNPTpVqicv8spiBvGG5IWRfPK7hmvFy/JVp8N9FVGK66k9Y8Gofsh/k46TiDr/SZ/5V4ijI3KSo0/K0EPCouxzkdhbyGzAj0BjliqwpHsRA4833t8vrNbB4kyqdm7eY7+UHxBIttG1FZoC6l5PGtF9prAhEQsfe8pZQE0eUpMezSuo81knbzAJ8okWZkZGRTODi3a/F2DYlybSW3e9CNdKRFabJHaTdD9vNEZpDCz6PMXCqmogTx8RvqxMCfio5A6oOEFpFdUKFgDMRK4RbeDykojBsIgtzhvvJIaQxVGVtRoGw7E4Di0aX7CNyKZrInuMlMNjZX4ctPmMRf/2LzI2MiBuJ1KWUVz3cUhKkQecAACAASURBVHa/N3CNJgT3vMx3eiqPPSZrGI8eJPLTFIJyqq0QQOQYf4Yp5fyOrvmL29OaQJAWApHqpWddTaUTj/M9eHUGh8lR+aOg30KcPU6M6ccPsklwv6cFmGfA4+4Sjq6Fo50joNVWepjTT9KC4AGd8UfOP6MBlEwVmNhQWPnhDJvuu70uyGjKfVVbLbZtmWpMlaDnoL3Zv3+V8QFAydme6j+l9q+JX4CfNwuBb3UVbMZgu3zexG7Mz/zSdHx9giYhTwhoqHecLOXEMK4fGMxPXBpwlPRTvoAECFWII+GXMAbbHUdkadTV/3apsgZ+gcRyt/H83yr4+EzUIC/qAUTJRQT4KXsQ2VaKYXN+fqyUn8PtpzrDcscAqwnFlshkyu5fq0xD/cw5WeZraSot4X9qE9DiO3q8+PqE+VxEToQihF9ysA1zfuaSTNfCQTuZYqVszWhsCF9qoZ8Zi0xWM3jyzY1mODAw0ojV/8/Qwy5bggRyRiAXAF/8nA8tynQXdIYfz/6vhn3+QTZPNWgxVdfBdA1XXkiaUGhfHtchYEGqbqBw6ZTqv65CIHJCAJmF03knQhNgobAptN/7kOEJ4k+I6/JEvktOY8OJkC8xJZ6Ini0VOBHDlEzRgPnpLMN1H/wFv3ghMpR0++o/QVbVPwRziWlUPIEuah7ZOmVZ4LJ1OiIna+jIyNU2pVWyHDn7dG8CS9XGOWGlxX0C1hxYQizVbUE9yIY1sizs97IXX48mikTFy4dAB2eXxIhQJSaOaHxC8y+aUvc8+w/jb8gizQ7m7GihAvHkYhbfEdpLepZLwVxheZ2n/lPxjpzjCPwOkTdUWhLCKhJ1kPbLY3R19fc4ivJNrow05fUfxYQrqq5EMNmPswM221vMdOuMOR92De9rnitIa6NZE+IUJDo1hox/mMOC4dxlvuCK1OEUbasGNhJgQ85fdtqDGk0MgPX+zxeDOAVJVMenyQ+tCharnWH9Zb/2X6t1RAPKwJLZNtPRL5LC6ud+zgx6RcJ8x5p9SNdZpES0D3oALIyrzx9ighFGYF5NE9jEO2IjmzPyBQkTRoJYYc7M5CQnZi/W4UQNjlL351Jmz6jQfjmHSnKlISUQF2A83i+wxzukqrM5o7aw+n+aSxdWrZbS6lBZC/SsfgwLzTknFeXsz9rAl40nt1GVmKk2SvY0kc/qSsy5FThjeaAgx+CvjcBQlYkSAjyZEtvwj+Y4zE3an/F6HWEykbSaM8N1huCfoa0/qiQhriKspnF+yIARTOqvuOAHegqL7QXbyj2OMPTOlMrbaiooQaDVX2B9E859EOWuefbPpWzXqcE/dvwLZeqrf4LvW6QiMH5SWqzmNA4xjntEoEra4aPwfQOfdNcuX4X1EgnVWLXCw1SbfjZw97ru5fGwHJej6lLbIkEnSVaWtExTtIwfsK0z7/wGW+piEUZTaMVOXwuc6la0zj8MfxZs+WzueFeRk6ocRFNw3zHFYoi0WVj/munPRTn4/TTsOPkUk3BMmGZGAxmWz0Db3GPQcpGMaUZjsahA0kK1MxPN7J0lanedPtMGLpaq06F0cbaUUuAQbyfJ5AUv3187LRaPUJWV1gL+SC58UxBkNxluSsGnsUbh04IafWrwj2kKriXkICd1cqaXj+KqV+vlG065FjWB+6l+38Rkp0YURo7Ui9De0iiUSevfo5BhRVYcNtE1tYd0QK/T5x3HFG1qJSw/omd7RiGxB9LM7O/kCEAuHmCblx/0hemwRWvF/1XF1EFQD0z/4GJZDiqTMxoAJ/yc7uL+E4Y+e8U5BWUKLTzzOX4oUKVDg7tJTWK8zTRReAZBPdk0BbjAAnzZhtRlHQhjBhySnoRGzwFI6quztXQ48CVob+bkn2zvkB4Aub4iP9xvEnCh0nqDX3cOSkpJPu3F/lN13LC4AxE7VKYG5zhjBOAdGRr25BfQpklkYH3SjRogJOe4h2hTxXPf7vstHIUehtyluUKTcZVSnt8nI3ejUviD1u9l9SjwHRZYOXdDL9PN2VkbIUCIPJTVlvL+m3x/ltjYYUIpsVMvb3f2gUyp/+OfnSnp2GF5oZ+K7UcFkJJc8wdMTLZqjR16mP3nZwcqmVS22NDEi4Q60kRh/VgZ9RiVir9hrEMlfyNPd5Xrv5FUvW/v411dN5z5heNwetjKWW6RScSATvOLIC+y0KLEM4Ng/TJOQAliNSUAxju85rMp46DO+tGZJJ06PM8j4BgvZy2VlTMTq/p/0peWNdo4myqXG+RfMuzBgU2m4Alp+vF1EQA8kN8M7SXCuRP4gKm/GLRgmH9mzhsSqKXkPRK11IIstgaCGSWLpPovi5zCi8MqSL+x4dOpQTmBcGHF/Ix3S5KbnC3L7jna7qdqVpVxm8BYAGhVXh3lF95RImKhLu45+SrBpsU4FB2SP06GOEeJ/ksdQJjpmi23rUOAV+HDvKhBuS++0DNI7Sq3XvKPI0GB9cPSdeAc7h/U/7g0MmGklFPNpx0nwBasH50eYFJ1hn0OpfLd1XCc8jWYVJcmi6NSDkpZLeqCnlOucmSnRkvhegEflCbOumoADKHsJ15zygDUD7NMtF79Hn9Z5KX/JjRDDrcgO02VqLufgoH9GnYshVYDsPnnn3LZk1ODvwmgwhUa2A+HheL6luy2V1ECG2bfWd7Ku8jbPl40YjixVim//70eOajfp7QJEPK48p2A7x0VJyCBefiEeSM1TdJEylY53DKR9ClWVTh/+RYuFtpqYS9LyBipbwoJnZndWzQowEKRgSb3+qrkVJtoqLBh0dH9st+LAEQqhWFJ3ulhWMY6jE2hdXKuH+ZRxvs+gCHpA+BiPOS4PGw0nYDsA3g1tOcYBSjCK5jQ0sMe7+zckgVY0Iz4v5QoVGkl1JtNPTUv4VO23BMWsDTsSSwA3wDtv5LAYWogNgVha1VXWY7UH8OouBEP/mxfSfsDKIWbATjf9UA3Y/gOJacEsm7X8Ry69c/XoRYpLwe5D2UEap1rAND6Rx2DqbIAIKIA21ZSgInIwTRovzbqjKq2pD1pkJEH15V6jq1d+V7n/Jsi/Gg2hyA5sU9OFatJV656j0UHjrkPRznmYwor2xJ8fm7N12VqvVd+ntGooyEAaLlJaMsaKU4+qBLq6Enm/w+c+sTLDaH9ncyEaovNIjVyij4bUuFT1JYsD4Lkn9M+EO2tnRIATUPdxk4zbTP/Aex+i2MJC0RkYwu3FJHf4iGi6xpjM46QtZhzE6vtUlq4yc/pV22w/mNiM0oJADUMbWYaj7JuWYBRsgm0/zgMu6oJFeoPIaUfulLHdrmpwb4PthTZJUVAKpQ++pOsdRj55b5oVrknXTlpqjUVgUuZnNsR+wJmH1/Uk9isOJGa3Cmczj6W3I1yYoVzbJyqqMXLDaA9ykV5rAAwGjpo5Mn2o5INmNIAnjHoJEsEWiGJeH8Ql9r8tEWbvbRlkMpbbiEhwCyuyznxIqC8f5sFmU9eDetPUqSgOqUBNF0IV8+gNJP+srtQ4kpCmVyfyuw3v+hntMbqCTL5qmPj0FY2AgDLX7gy8So9rl4L7b/euIrYHE2eRSSjZKIehTLgCQiA5BnmsGPCBXKM3C0rB3E+AC23CyOqadZSGoB+6JoFGdYXyNLnxlNrmWb2SOeoT7WmC+Wa8m2mduAHUxwBXMOBIwRX2RyBMXifxA1ZIaDS19N+OOFYnmHZi+I6QpC/QdtwVAhBViYAxIXeaeoGDIgL5RBgsiO0lyhNtqUiAGZdm0T7sac2zA/6fHOgVhJFWGVKADQvcUjoymv9UL/L3sXscfeLt8bJ/jTIxiyfw4DrtM9oCQsjzau5YMDxS0bqHdYhLyjBCQT0YBAXO8ZeAMQEqYzVl3jWF1VYOP99Rmixyi0mAIw/5DloW7O61VUopvH/A5wGPTXgxp+h2Q1yx9lgEtKSqi5KE2FSm6qgPwdxATreT6m0NgKQl5DuEsK8fzVWkG5S58skAD7iagXOzXSdMOgwAJE6jipIi6gE0/Kr/9HbzPdhzWNhAjAK8GbCu7eJgowcq5wta5q3UAiQHaC/gzbN453XJkCR178h0qBrq+eYUrIcdo1LZNsCqlbq0ywky2e/4h16IvFHP3PtEXcVdEBo4wyO7w4HMc6YtsHvcwy09nv47rrzAwYV2MdC3YJxLhKpwrVR7lcErtN9670siPb8yGK/5HmcfNRMLHB/jvikTIVOrucJaWwFAMOA48QIAITAOicgxy27gqjlKgDVhP/jW3ifXX0lUXjCRk7Wh5f5J04pbTBAZZVYcqzSrKThnUrkTpR057WN8wpMldxh3dn9bLdXCtVYTTjzahQTL+PzwUGNTlo9KIxXHZ/Tf+GZ/RO2+T18/yU85we1yhxhSx6C338F67+B9ra6SkKunsNeFgw3+s/Yjq2QQnmIAcjOLzLBjA+vF9o15+XAPV7MWY1BlIy1BqBhsLez3S9mQU6xnBW0IPNt4KrSLueUUl17Ll+ynldYvqmB/6MWyko2ZsBWWEtCYYHPFF8uClddbCXSwuMlOMbzsN1zuITn/BLui2qg3haFkTFJykYt9AVLa+b3i4Gv1fikis/BaKXJy9B+Cs9pKSwXwDYHwfvZFbZ5DWz7KthvPXTaYmHWrlh1dEWYwVnqNIOmOA00OPLhWCi39AdsCMd71GFiRm1i06F1ijI8ERCxrKhj4MLMkWEDCim3RGoAsH6SdEqPoROQOPAj9XVZlzwVBXibfhlx60QBaOBSFqQ6h1UzTisV5s8BHP0IHEElVwGqGBWyZAa84QnAGR2JVe6Edjm0PsSCwzIHbQc4NkKKt8QlnGtH2H8P+P0Y2OYCWL8bls9jByDUZdkBr1oMfhwlNVEJqMrOaHLO/QDu+xR4xjvmekvrFAKT/Hs7LCyxN54BOV8yDNdegc7R0GZ0Oi8sf9AVXZzC1DjWIviNmLlVJXS+DZMHECWHc/5A0LeOtQGDBgJAQA4rBI+8J729iFe+KUByw7h1cACEIOMCIFE67VLwJxb8Kq46dqxnejtTmfqB34bjnQW/7wHH2WgdCregxnEGtIf1sc1MUq6HmLYEx9+IcdoNjRDI6n+gvaMBkK0dZ3VUo3HwBuSoJketpWzjdfe7D2gTZBwc6r3E5OKPsnPXVQW6hn1pOPP3LBiSaMAt4Dqepph/LRUKRJ/HrrY46IeGRqkegEEC/tsi+syJbT0AWZJYAhC0ygV2l8shaBEcecQx1+T/cdZVwNVbXBo0M7a8pNOA4dmR2YCS/h44Vj+aCfVl2ItMKtKppTiWWdMdV3feNjK10MHTrv+PtRor3llpPfj9JPj/SacmSo/4pE/i0fUXybmKtSjfz/feHQ3qCEzIKdn0XLoKmOCz7pVyWQCYIjfLXY3L0WMxLlOK70c5ArDX/CH0r0m/Wo9zFFvtrkra+eOwz8ajVhRESJ3NtJ3qkIAjPAhg+Sdo66drsdMSacT+YWnEWghBRgN5D78WfeISoqLkZpyd0I4nXvrHYTsFLZsWstixtB+BQB8oSMixCv8N1r2X6Uedg0UvGafONmqbT8mebAPtWwRzrYTRpBYCNeHtp+hTchesv96E6rRA7MDn1wPP7m19OmYOrUS1LYbYPLP2vCNtZS2AKjdHAniTX+zMWp/luo+L3IyWZruqdF5x7hMYWi4EADMB/WD3wlLPfB8dDQDsKVj/BtkYVVvZ16ghz8BvW/gzvxUAODM+6EoutYAa6jMh7+D5PLwcAPWjOadeg2rZr3DGgH1fJ+3LwMzeWiXNxiXfhKJqQl0nLDYdOVauo1LVZUxb1UKiYDpyt+csSjrFdVxhCS0iVZt8mAzBx+cGvyz/3elMVeVV0aHq1O26wOYqKLJzcZHNgDZjMjTg4rf1BZPTSZsbrVBgTdYDgONuz6Z0N+EQBA/AxRwBEP6HMvmRruIJaVQEgAc/jNQW0J5n/LGYCZHrf1e+YG2v+B7LO0gVrbSCMyqImHs9eRraq6Xgc05TtR68oBuhFaQUx1mKcwYC5A3oHaROW3KDNzJcArrjghlgzAv3MntMufV2ozUo0hrc/tnYp7im9SsMKQtFZCZRdCCoB57dKfqmJfEQeSs0ABrTYaHZhEhNfLZdYF5l+5OV0eGlU+OZHUvTcY1inQtjVhoewN/mGmFL8nb9Dr8egEloIpPkDI4AdJ91/aiYAIIfTR0p0nodEMWYBYdwzDLIqzQlWKmVKMEE5vqRdBFG4TNp74pKYuBDp4OZJevyzL2ZynwH4bCWHG6kabW5Y9vBIOnJv01282TCZVjYuQHHJH+C9c18lhzvfts4Xk/PdiO4z/3g9zPh/j+LVZthvwegIQbgIWg/gd+/D7/fA+vfgu2+CtvfDm0ZPMet/erWXnHXZczwPIogIOImUDfIsDpG17z0+lj9xZHsqlqKRvxgDkt3HXvZKMz++WRlak8tYDQgzHRSRfL4AePkZObDawVHoMiC/AlTSodihpazNaptWnrPW5QJNVgokSaAFq5hKmd75nGLsKNti5BU2OYM2PYK2OYrsO13oaN+D5bfgnYdtE/CfwfJyIEr4CIHhSW43Bb2eYq0l+pkMAWCyM/bh2dyqIPH8gRVL+xgfRaCZWD7R/A4OAGh114vYZAZ38xig7sA21lHZXRkZqluGhFoSV6dliEYgm7othWeRuEZEr8mlSj/KJs2M/tQ6AxIENIsLq7jcCSWP+C/0LZmQRiSVjkaJgBL2iNdTXuLgjLoo9iwAgfGmZXpXrjIvhBYvsvxAbRCKIpLgBsewC7j+U9rADTAnW3/7uPPzswsDHLp9I6Udxnp1g6DZ4tOwvuNqWWiBohm0x2238FXDXaAgEKxehQpyQKitRJ07EIzsWmlJ3NZ8knBTky1Jynm/lXWrgLhE/H7aLIZbLcsJKq2OadcPUKh6pdgm//A8hHY//8wh0OEEMumDJcGUGHEpKKBV5GpGxC4zM5MULBm7dcEEGe0i4G8Q9YrSL3TuYT3rzBEXKQzP9Ad1/stRpMWvJs9+UQLbtCABn98g8Qfd524REYQdoTtCAzUEk5AdkTdKGshrEB4Wk90aFQ6O/CzeZ1YcjDGfGH5Txzc2Gn1y7Tp0/DcEPUH391MtcSAfXRnKeklefp/x52W1eMcV2l2s+QGcE2/N4y4zV2fgGd/XJLKu59fzUdlUhGYHeC336PQJFMHBrz6HPx+AtxrFtZfEyCRRl6tD/u8EdYPwUQ2JtWwkxonecXJljKzFc+303uW8HO8mwfiaLEAE1z5KbxOnsWzMUcmbDryYs4BaIBKvUqiUkftIyqTbgUP8znbOY0j0CKXZkR1NcxtLfMQOzhpDy3gB2CP69Ur8rhySXBB5NghnucWOioQJb/Qgx6P5SC/wzozTTAuU87Bn2D7r2NBSPjvDmjfgeP+EsFZUjMIsTZ8pLqkOWAdkzaGnZxpySSjpjcBzOwWJT/rmnuZjTA1yDp9LbRHDCRaP8tbcJCvZv/+KT07DSemSNdfYP8NPJo7PmdBOxh/Ium4RuM+iY9AZ/KFJ5n+k52/2M7muQgL7nrnpfocXOhEFWQq+ugJADd7rA8Hf0QM5JpwiP0DLuBVPi9gQheu467fNyXE1OSPBFC+NixLHKvll3TUUTfb+8/OP9/zxMO+W2DxUASv4KCnTlfVvhFLGOpKV9Fz/gesvz8omLqLKZQmOha3RO54JI9AwUyUVQ/DzL+RFN7d8eUCnq3eKtGZzZpFaEwUmxt/HqvCmnEpLvLMyLP/9S7pJ/l+yuOPfph2AlGR/0VrbdNIQH+VogtlY97pAfbDHNG8hSmaN4zwQPuDdkqOAtGtoZez1aXO86pLxUpya2yn80AIVBdEjgtAO+YjFbDg745Ko6oBZHY6ZTGvf0fQI1v6YlMyjGqZw4Puirk2HpsPyXXEvlqe/CaAFQCX24GYrwNAuYQog90+FZ6FGfgG6FHmsKjzp6iagBrXQmPfH5KCouoZfbfCskaC+n2I/ptz6tX4Ps72nJD0PnIF66u4h2acSlOHW2PFIdeD0qHN0D3fLuqLw8Z5l5xLg399570nks8UwQf8vi20ZwXXJfsbbkun1Ir8ls1D4rkcBQ3KRtPIzHlXuqaf4AD4ADmfqzTzWy0Rln8JiQVIm+BxcTQ1AI/gYqkkuHBFEzU9+DsYv5zDizAOL44gnGPACzolsza5cQB2VlokGVtWEDt+B7QH3cDX+dtVSyku8ti9XANDtw52qPHqGkw4V61RLGCsX0HQVx9GTq9HQ2Jq1sVaCaYcuNDsufwemzYcSPY4pvCGRLqi0Y44seQl67I6l6JML5E5ep+vJRH231C1sVBkZp1lqXyNYbKxh5zGoUizs/D2t3FIe121pyBt/1N1KdTcslEdu7TiSkCO+8DW5rxZhEEzo/5xA1md6mOgHYcZrOdl+M/zzhKDCaW+tooJMJQ2ASQUGO75bOOwW8LqZdUXmqtVGurwVChPCBeXfUmduw3tUzj+HymefFi6VoGAkx5unV9NKgACG/pLfsvqup7BzznHQnepv32Hqy5ZWzpOlPCga1BVGgkI25/u6v5xhiELgORMjp70FBZnsgVlNQ5YHijIOGujgCthreObAslpBZaBOg+i4PuZQdQ6zZGTh+BaTufwKKakj+pn9xMHJMnlO22FG5uJlLDUvNymIRK8VYQCu216ajTpBQBlbKlrmfsgjOqcUm+2M1gsMvKi1SPqEJmW3yW8f1voatdnctqxKIpE2BTkZGtYfwrDX4Ejhuiw5cqdGrttSPakR0zSXBoAka4kd6cxFsIe3wgJPigcWmXhSebN7dB2kn15z6OuxkE9A57dFyiRbcRnVFJVGmTH1KEpXTh8PiNb13UyC2yFbT2pfpyFDoaP0awUDngvkhakNEfYZzcZshzVj8Ga21ltW8nym7KbKE5bEi/IDojN4TeTTRirSU2PHTCPfKxuSXMhiuc0I9A8CMmIeFm11bd9malWJ5yc7tB+RtsIrYNIq3ydAodwhcEMaFX4OyZDzoNl03IQIxcPkZZRbVIBQIQzyZfS4Vahjr8ZVX8iZ63Jmg0UChzWXAlxciX8/jlE/uFERP9VZYJU4Kca78XCPVcosbbFad6fIezL8LqYAIHgiaB+tXu6mIerT6h6vXyOiLREk2T3KCbdWd/TmJgAXJEk1kCfh13HUfJC/ggXtp7saJZMsQ/tz+RHJHUntRkg2JC/UU/bbD22r7X1ANdc4/ETdswsHa0Gd8OnKUTENuUTIeUqoJCilFLpPLteVCxuynArgZZutFWXHT8Fq+M5UXDFsS3FzAlouBc0oEqTpdhZv5zKjpQYACys8UYPAyCcurD+OYGIXefq0hTtQcTiBtbn5jIXGdn5RUIJltPcAXC9X5TcAWPyScEgbyUy0HIqO+5lmR0XuJmKzYflupDGJM8JEOr5vfXEKQ5wA+2vspTa2iXAGNwEzei3QtsXnvsmoZn1p8FLxwIRh8P3/yFgSk2y1TrVUMeuM7n+AZnQcqZ1zDalRsYwc3VTnUfeCYDd0gLTOVdtdKVi0H463FoJyYNeD4Wm9PZY/S1M8ep7GYFU7DYkvMa63iOZk1dLczLnU5BtDOf5m02ptwxACVc06mc/3TZnPTBGAiBftCmmcKJzyAk27IgRWQtIjqwL1zgm04WTBYCyCh8AgVPUTwVPewNNSf1ibYuiSpOB1qvMEQjnehyTWWD5MDzLp/EcrB4Grmw7lS1P6hyzwqF4hOBpqDWnqaXj81+p48RzAiCb0gDW6b0SVuUHu/delvH5LdgZl2wAv/11FGpdUnm9hIF0R6eZpUKHwH2HZeJioebi/6jJ7MqRg1z+ksyYfUILwUyONPzpSVWgkTg0Zstkaw1gXkkShO6TnuEmaRiQE1OQPXZaI7TYuz5yIa7fR6CStY21p6muTeIJCAFG/xF2vGq54RxJJpUtV0o6ZgmhOOrhrLEStDTT3ruyylMa1LSOpecCkdgGy1vYfyWK3bL2u/1oUNxZHL8xOZ6Gd7OV9XM4yjIO7V5kTTUReaM++FAQF20CWDYujaEJ4DrOW0NyvIiZnO21W8022mudCfuUIMtAu5gKhcaTmK3WMSFhrH2DVMeEl7CI17/F4alRKENWsxwMWg3UDizCrytRFtrWDdAORPhPh5aCwmIvt5yWr0qxNdWa7jmb/PhfCSqudPXpjaD9izSjdbsHF94dlOHdGQsul9GsfUaLY9Go8Pod3SFj+Jg74jSOJTiOfsa+M5+UViMHE4kcHNOPwPZPgwfzeypeUCUhYIoZxAlWCl7PCo38Uvuydp+rK67+iHHXk9UMEMCNJ0IHubUgIFEb4av0gsfbyVYT9uyf0pwFK7Jnm00A+OXnfYpsh7hchLP0j9eVccqEtYnpOSYtFkzebFTM7HH8UomfcHiWtdcAaqSlsY+j38KWCwN+KbJIzQpjL3W7tjKcyJh+SC3h2fxmkwUoySW0WvQytB2s1xb56uKi86DGSjsCjf9g0voAiApNPQtt8wakEbx+G6feTgyOXr8PpJd6E7+PmX1L0h7tq8kJVW7CMCBTZGFG5M78nFGrTHnIr6/zkK8dHx8Ve00WkAbQmfZjwTk+xo7TtTeb2G+mozsvQHsLmxyzjvxyJpcftD4bOO9HpPofsJPXwKMxyrNFOhQ9Zp+c6Th8YWdLaK8DUWjfwFENQBRMDrKAIwiT1Q+Qqgu4pReXjp3JA+s3E16gPBFCiuvFw/oB7FRCZtyw13EGwnWfxQ7doPlMALoHLWwPsvcwF+PyQ26QxOosxzi1LhpAUiXU5jHskDOQ66JkH7qMtIThdTTrmFb+Lonq5GSlLofbuDttRgauJN+XpK+iEXns6JsBDg11KMUvBaadbajkQmdDJZmZ/UUhrXXYZmQy17Lz4sURxYvtoE+sNgDrN0kevglgLmYbM05XihEq7fsZ09FskOAU192psuaCZACC5cGScGZt+pVj5NX+jEr1/QAAIABJREFUqUMlI6+PnTDlwdeaDNRdI/FoJCdbGz4eTIOcdjAVoJhHQ7l9DfCOWbg6uvOXj/3g5zRKWt9GF7WgGmk+QEZimlWmpzeRFYY2he0fIx7B6uQsFmIzIF+E9lZJn04EIBOvAdgUU1284iIOBRIcWEK7c4wbaFKBPKxNxjhZLrkXAsOTx33xdUj+4YTAWgoAt/52r7ydwbK0OfDUMgZP1dY6/Gf6D6j/6s0SMevVlQDhwLRjxsGb1ATm5kVob2H1f0bfssy4fBw4oYSoo58bLy2z/aLjSYel/ongBd4+R0i5HDk4YP3bzZ6Kupq04Ah82sUPS3mAqduodmJ5IrSUgGvFxcn1bD+LSk/sp3gdvLdnpSBvsgIsFnPRnbf1FsBOLqWIVdW3uFTXOkRaNEwdWreE5KLAyTq/zk2j4NdhiPOd0vtvaxPYlG31P6KydJo4RIdGewywy9YwHBcBEDhk3zVUxqjcAMLazYCNrJagJad2xurCpk9FXaUA0Ev0f+wqBUDKBPiypG+eAA2AO8s99ck0djkNK+VSBKfZ2JqIJ087M7Eg6nYW1owxb82QY51zH3Yz81pl6YmqvMksD2y0YjLQNb8fr6xcMp/V/2w0lMY3vEXn3MQla2a7AqDa4fkxzhXAXJ1x/YSu9t0pVI+8LBBoXDG4zu60jpRIGSBRnFQnJ0moBdyg02nXOhMgbzP0iL9dVSZIUFEcPfmNl05bHwq8V4QCm7EUe5Xi4Eelq+XIIrQS1LSmDk0BvUZn6Awvr8P3AVxHFXjLa+X9pxJesHwS2uv5PD2FyzLZeMCOESxw6lCzZPu7a8Rzz5Bmyrh9ukX4BZZv5zr1AoXG+dRLOT1RY9BNggPPjMjC8rxlYZl8zkAO4WC2386eSg2dJbuApbn69oQOLAoXhSZctJEnAPxKtzczKUZz1mE0fgC43sUS9BJERU/9hW3vthlza28CIEPwLM8E8MOmy0TYtLbGzuPYcv9/XmL/2TcTFIqsqX23DkTm0qN/KEPz2XgcNQDtpLDOF02N9BR1MjObezj5ATsoZp1xmVU/Z8zFAo7JT5jcYLJlBnIMF5YvIirSqwzk1QRo8BLHW1Mxtv3zqyhycfWoF7kYTcxFbDWZ3+aiwWmSNIPKorHTLO9Kdq+xGWC5GKHNSVGOySI3A2tV5IZL6blQ+SH1OTPWqfm2kI8fucQmS0YbqTMbMVGNoxBQmf3OWMrrdxs7k2Y5stlg+TxyBzAAheiohBlA1YImIUWYoOx6Htq2Xvk0ksYzTtI5ED/QiR7xhDk7+bmiprKr7/wTVNOxKqWpppvMBKD70P1qd4mU6/mQB1F/vQbHUOGTNZlYHP+gFuzvYO0VqcCykQPmIJUa8Q6uRb9VFQq5/josyMImjAGwodmzWCALQcbnGrbvku573D+kErGtcpkEYQQssXWykDpCxpy92GqsjmWW4MkGCBIC4NlVFEX9mYOoTtB10hLaHKnW5vx3OOCyO5uTHThw1FcXydmPabPSjmkiXV0DEhanacCxjuJ32EUqOeciwH+nuypXqydgCGZsK//A+idtubhIeXUN9zxZsx3/LKcnDtXI+/9dATgb3QIgawUIitTRxNtepY5G1YL0jHI+P0ijcpaErSwTitSkSgwSUMwn621rz7v+G8G4M1FVdZhY8wCfDbe07mrt+JozhH33E4MEJyIDzfbnVN2gAeHqqkpzkYe/X6JXe3qHZHmwucQFUVldarvA8g/oSePFkKDyrPL72P9kL2LNYtYfTgFm9N9CGznoTSZm8GdFqAtvpkHVHyIJTb5pKuDocA20AVFufBAr3z5E9lB1MvEEiuIRfwyIerpBeG0DaH9i4s2JpNWma313umyYEACLmlwAcPisRhTY+3sVq4hBBz9bFBfj+gNrYXoRkvUqFJafYQGgqzqdc47kUDh8DbMneSAzecetjGJ0NQoSOaGWOLTuqf+GFepZ2O+NMuo0IZ85vUpUK9HEFw874gsvWeExuInNHFcZ+QGctF5KHAKTLTGIarElP0uz9YplE1RDMu+C3s1RktMhJQCSZtcAPFgwlcAKYsePmIsEziRKTu1ZyPUP14iLkSm2rrSDNEqTrqrdpGm1mn4Yyt7TQukwVv93fU+i+ftdn1Gbwr14ZCOBDa1rQNetnA+hhV4+mTAZ4FdlidXnjdOCKcI8p83ekt0kxUgzVzgQJ5MGwPbY3Q1SpXm5SQqeOoECQJOSfLCBAGAv9xUUZmvmoi1yYnlSJmG97aQlaUzAG6D920WnVm+mNrO0hrJ/zbA6JZkGhCBv0jBcnwtjNcqbaU3310HeOhM14m+Oyfxj8+JYh/xTomaE4v72HltoZv4FmQn95PouEWXD1akShcXsNSStP+rUqUGu0sJe2108RprJEQ2QEvmWNMTWJwVN/stlnCbMCYidzziUjpW+m5Tj7KoUorNJNQCTskuz+ymsBXTnizabLnQJPMt8Fp3VeAcihJ1LUb0Jwb6x9v34JdZXGsGwkOyI0Hsa+acsmawtohsl30xXHA4caegfwRx5Fb+7ME4mVgBksfqvc1zslobJstMClrd5eGeJ346RNsw4yoIomTRU4aIa61KOFzeYKbaDRvTpqjZhg8aluH7QEwA+EOh6RnROAhg2D9KfZ3td2e6uyAJoGLGX83LvV+cdOKanv8MxN/TYrV10ZxrO5KLPrsL5R5mjcfJMOnPUy2hEGnl6/lwqTk6kISV0GYe6G0MTaAIU5UBGqfh3cjZVudwROUv+Bje0sXXWFKzTg9XPa5p99qnLA0Bn0SnoLKKClSDIcr3FdCrnjAnn2+MKw4ZW670pnnmJb799opKW1jyqwXRn2gfz//yIVJImZKEEobpclVWleT+PBVZ8jU5l9pi3mP0Bd5lIwEpN1xpri5SQ9VlrvxvwUiar6fJsfszFjqJd1azj06ETZ0iB0RQf3YkKshO5JAnnINGJHHvVFTxwxCJ5srsmhR+ApDO9VBuS0feS618kZqBkf0r5nLDqu6nimgd7M2ScaCwArd+5thDaCQI2UT588m1ZMAQH/76HfFlwViSHCRzGqt+DS/JCurrQC8/5guWLPY4Nq7YyfoEgZvaoZG95PE3M4mi/N4HtHpUU8sTvyKzId0hTMxclzSEAcoIqPCDqIk4M8uqWUeYSkjlk+4rMsMIP04M9Nj8oyPOsv59tum7MT++9Qs6wx5LXtzJhIU5HHV1zCDrrzZaYjv8VM1qz12So2fCY4QvcW04u2YLJD9i7cBHf249Tqee11WQgOtRqTLoWYSJm66RoUKyriJo4VmNdrDToowrFqMIXhkRfSY63SWOR9XXURP2J93Ay3fTC5ZkdFpaaRgmQM97uKVSV5HX/muQtC/KDtgNq2qU4+ZUs0jgpUoHN+j4s1acfdU6qBoL6iAhx1iZuxtTx45fSxCWywg60ByTr7GTQAiwtVqxu537I+fQb52MJOT9WDq6VaQEpj/uJ7HHv6R3MvOmk5bLStaAgqz+eYMhiPMwJfKxcP1X8Fei/gGi/fH4MC3z6bVigalvNNPsbymLPobchtD8TUKNKKhBlo6kn4Ea24A4owA8CD7B8JJwcFYNWmAlIsFSeJZIJx9e75/8UXNemK3BqrQftd8QxX50kYdha6NfUy8nJKIy9qjqYbfdzy0SdFuINiEEJSny6NFVlOrur07cSZmvnvf8T9JeNrBmRT5c2U3NcXUNy/tmCoctklWKtZWZjlWmqTyqr7HqZVeZ41rRQOCRNXyxsteNteecmzww0jiJtUz8L172FnzfuUUfdTjHd8gRxHtTELPKLMC52yMIlQgC8KiDAUhAlk0IASC2AwmvXO/KZAandcP86hpyclZVyBRi1e5iSfc7lHIAuGHizCxJopN7tSqvXHYsr/rAgOYdNicDO/CVR9CNZZhN/ZBFZg/x7Gr5vK/tYU34CR5kcUTpmxXGYMT+AusiqQaaqrfSYvykg9pO15XQbV0y6cdY8ivX/5KCyy4Kuw0fFHCbOuWkLT8Smuu4KKcEig1eYTFmZNkxmBAFOHLNlTgDhTQh2vgTX0/DgFc3cTGw7wJOU1CZouYdwGNYaVnMy0YRn4dq2rw/92We/NbR/i+pOnvDANG15DRMe+2+oAcwblOCXXdgxIqSscYTEyQ8kijCdyQTr329iVhqPzpni6j8LRUw9NatizfrHRSn0iRkgrlzbxeyfQAcslo8StfVmrW6YrLm1gOQ6h8mQ5dDtTPt+D3XaWNi5wUdwYFlxV5R+3zmg/BeP0i6Sefv6mq6yA5jyFWQWJvx+hiEHMZmFHqux4XHYrelCf3UCoF+EM/I+UahlMTXqzPNwI9tbUJB+IEVJE3bBuhdcGB8gCpkrms99p5Mvk6XQWRBuD83Uj4snMARI8XJYP06mYh849wKZ3XY4+23CycbPGHk0WdjfPCYfxgXsesK5PPP+kCajFWoBoj7gTZJzP/V+t4T2XBrlGbj4PV9fTiYtse9LRyuiZFpA2aIy/Bq4/nWPA2w5h2FzmgCS6CNWypWcVo4E0YSZPDiq57iJkgNNR+Q0yOYUAiKy8VVJfZ5SEbsssGli7qMmVNSyJC5FwbvzguUivz35sAOgTEZqNmPq0Iz7eZksI7zsHG47lLS36or6GHvuYfkNvU9fIjQ7l+cRUp6HSPRKR76+zs/czP4q02HSl3nCey8Lo8AJMhc5iJJj2I+RzQ9Znsnm1QRc5eAjhEe55uwqjQfwoLPZvOet3QydUVj5tplhwVzPDZa3ytCml54aqZBJQCaI9dhAgHXtxuR30HkcjVb+snQi0OcmFRJzRczBROkN95WVajMTZwTx6qEDRez9bkFi4/t44uKrEC6cKhFeI/4Fpvw6KBU5MFGiuMh+r7ts4o/1ZSS87/9hVM1GlgrF5h78gXHqMWQSeebJsaG8h4Jpw9CmWT9ArNKltG5seky6K8t0C6uFtlJtM9nVLl/hail0afCTsxJ9AlYNrYaTsVRb5LQAQ+aR3MjCOOcXamWBsBfN3LV0ONH5rDQm4ofhQj/FW2BXNoT2V9JYXSQgsv6u7zvhI6/BYmb24vHBUQkPOBclZ9l057wzG5pXAKSKNMD6NzxsufSYRkkg1WWPJoziqzqK0Kx+gMgWdfiyIUcxMNSUd/ctIfkAJmBQpVNIj5Fq8EEjyyUKc0ZKUE3OUm2OcouZqXtSiTZgc5ek1qML2wZRQyHNXA/3w/tr9wSACJ2mNADWQlh7eL+kwjOFRTyt60Y+fxBzyS9icI6Tf8P+b2j60F89LLhkKZT8iqY2HMhx0Q9zAo3WAPoGnQYQJW9u9nBgwAMrVt/RHG7HJELw2Xz0V0N7mmeacefPY5hsnPwH2lbcmQwKM5F5GIJ7fnIOfn+CsQ682x0uoOihHulZzHCTk6qlyoJRlCe5f3YhaWtsAqiNnZZrfQA67Rqu5We79ZYsQ3QQFVP+ITWTWaIZ0kwOW579F0uyk6af/f3kIFdvrq7gQsSFKpNvUKzcpAfnDXZ7Tr+Vrv/rsQw3nwlg01FlZp3HCxipadB+S1l4461aywy0WzynmKs+yx37fyZJEtDqaz5Uuh2E2p4ps8x3CMZqsSSxEdqDGcix+lEuHmhLDXz+/npoz3E5NVta3DgPj0+R36YIWJMrZXHRFH05FiWZntaQJ8vg9+GlVG6KYcEBv5hI/QcfIANTwA5lJw0/oLOdU6oJw1I4oPv0zP4Y3NdGcoaQ9jWs35Gu6zZOtFm2JBisv086aGUnhue9c2DgzBaxOZkFQHqigfdzhww55+IUX0OcvJG1NBMCZY1T8bPTYd6uudcJAWBNp10MFLzEzj/WGn4R9Fn0oabAk2FJOM5OpqAsCw6VxjJcz4OfQuSZSScEnN2VLBP5zY52WcellWcjpbSHUJCKNJ0ZEFAuAA4eeIE7cToq53iLyq4Xr2vN+rW8PqJkT/6IzirrpNXpp0U5M33Skk/GatLa/w2ovR0XRZzs51HQRSoNQT9HRkCYd5CSjG5hBF9YH+bdXfq1tFlohM7xXkQMzrfrPCVp2K4QIVcXrnVRgG7PVOkbyEy6jwt7JB/oZm5z43HVtiapP1dKz7TRHgggMZ/Zgpc0ZfVgV/dAO4D+X50gc53tPZzhOB6CzEKv4wYY9LhEQsB05K58sRPWidVGtYL6n67vx8U37zK598b/oftZr4SgK/TV/M0jbrVQYKU84tGCF8M/NDRVsO3sD+sP9hRcpiVX+A3d7L8jHOsFCw5zqdocVfqSNybiZPIN/sDn+9sq0CqWc+gFMUtm9Yg/OyUemAiWFxOPQPM5p4xTc5jywT/JCSNYogruVaqJW8FLf1qU3a6NQ+dn1OVz6brz0v7FGDWzOAeTgoNhbUBQFgV5hLTJhUef+9rJ0hHKZC/Mv8+ObV9zUCeK5DVG7n0gfZ5gfiJt/2WyqGjgQuScN+DxNWTzajLO/oqzAzMrIDm0vgBY3zeNcw4dZHIfss28qqhNiAY0PAd59rAT7XneOtm+Nk7lwbkzsfPvOn62liZL+1ps+vXnabvyZLf9V8gaZLkDYWYW3IEagBZLNp7SevCMiNbeoPJIiO7DM/KsfpXJLRiQXA9nE9r1RfIX6DyXWSbCIp2GfN7pgUsLt8AlMfvfxolMYbPDflf16e5NRDiQkh2oxpmrjqoznS5lScxCw3ciUo563HQ56pLn4HG4p82lrZjtH3SaTJzMI0FRHmO2o5rNJDOpyntJ4EnKg71NQJpJ0ITCdRTNNEtMC/fcJ2d9x/VvZ+fjyINfptDt47D/5qxBdfeqhuhJWL5MmtS7fPPP5P0L1uXP90jcQeR7/2G9JwUUykzqTxiJeCuFmJyXlqGS6peCEFEznVDREP5tgMswNxtHQOBXeT1cqofd8wbS1OCPWU/zGA42AWG9V1+HRf0lnv0K131aavZvOQEQyr5meA7+agvUgCDsiZZnZK7AnmdcjOsP4LYEnvqKC1VT8U7aNlsYQOahn7tt1Z0O829y/X0uQRVIarZA8hoa1OtNnuc/nuSDP5d3ectvL1yB6z+VdFMS4QcPb45U/WU+NzzkfS1ks9m81LJUc0wpnxFyACQW/ilKPalU6e3amMS/Y05iSWwceg4XnqQZZe95Q7qjc1HWFhz4DQlEyZ/0Gd/2V2ktQHM4kj0fs0O7Rz+/okwFfhMc6wUKAYrZ26EOQ1MBiwXArUbNp0hD5CVqYQZmVo4BBg5Nbg0gLkrAxQUS+GAGj+Kc6/OsGVBIvBpvQaGEWILfCZx6s3Uuhm7+C+5pC44x55x6yVrQTn5qsBr9AiiOz/7P8Cw3Zthq1mHXWajuzx7vVgn9rdIZ6My1/8D3bSRiU1PUU3/rKpQwL+J38H5ehv+34u1mR0OZWQuulgSeJ2CfJJPhGg77deUFBsQ9730cGlSwQ3NxE9ofhRBOnEGkMi3zEeyze5JTxTk/iFQDqaqC/ABn0FkHoqvukixq0miAS3M2Nv58tgFnU9GGnLgPuM9Buo/h0dQCghT9FPx2AZsj3WRSUXSF38Xn2BMdTGLs/5qWRxcTzuU8s7/6fKMZ7dl7mYyOfDygcBza41y5J2X/X08OwH+Hlu3HgqtoW5vxd7ejhZNchpp9CSaFZCcfrahaZvA7h16vF3Ouhs4ZyOGPPdIOq8Arlexx6zdZSJDzApIf4/Xu1j9oBFjeogG5I2yJDsOcjh2r6mgJAev4M+svwTl2kmg3n8RCbRMK59+kxv6vIY27VrVNhaZnQqrOg7P7LtGizOz+knQ+vwbZfqTTNNdXlA5UzHT9l+YMjJNPSMahIAUygu2ONKYW8VyKilkkjBI/jb6FZv99TTllJ1nj5DJbM8ARH3LywyUOsJLo0uPsBe2KNMPQLyicU2k2PIBf9VUd5neIxOdJiEREYJQEWhC7stPw/XYOPTFJSZd2dFmn6uly9g/iV4gAiBxRBw28ixtFBCTslk0EhA9n8yWJ7pw355Sr8RgPQ9vAMQax198cY3ZUQufhgwb1mlQEfoTNxqehbevBiye7538FPAFsB7895dAb4ZJVsPwttPUskAg7bV7mBqhzG9RLbyb1krHj3zfpwYM26SZgzgOHP7+JUHrDonZfbR3CkVT6SwvIw1m9DRYYZlybv75AMwH93BYqeUXM/HVFUqsUjUGK9Dewhrbvhxd5lZ0FkMsC1HL5QRbm9xkBoI5MJ/x4QKs4iSj8KMLfgqMhTj7jawstOfiL1tOai4ud8NB/JR16NpRmwjQHygeYglBmBfVTs5kB6dz7Y+k+OmXHEHUDsATUw2Q21AND1oah2MShfwfHWJ9VUQvEcurlgY72W71yZv8GpCHkkL5Uwtb5eWU1YarxwmddGi8P0n0MXThRwRVAqPZiiDXJ7Haix3CNzFZ/9WnWFeVo6PyEvweEMUDzrKtvUSY7t9SCAiC/jNBnVkpe4OL6ErmmzYClPnLNOARz8y5nO/Y+GjSVpuxYmCLcp5Fkf0K+OI43p1JJeTDuCPs9SSCnsrBTa2sYhahxlWJYP59nFEaikTPVOa4Yhjp5yrCPQUkx4wvAsu3Q3iSjNWkV3ILTnIPuKzSB7eTt5+jg2KS4UKYZO6Slzfg71U9LbsHZfwUcAd3p4glc+xyWf5OVa9CekrYX/LbQMbg0V/hKcNNzvLnEEYG3HXM+g5syKf9AgGnRFAkZrqvlt3pFP7hj4azuseGmyEneCOd7hnMymr3wytiCt0TqbayuZjW+m0JwQX6pP4k5ZN4sUt0/ncoj8CNeEaYJm3Rfz8ejOSS08ABNzfgOApEA17IfmR9PHfR+w7emKl4qpQFfvI8l42m//Iafux2pbQP04HJiUXPh12vGzjOCiUqiv0smkhAZJM8UVExVzYT//0YEoyJlePUEnEX+Rcn/CuyFsVlNOIo76Rkp1p9XpAAQtRJkAdC3+7O38vktWIuLki/Bvn/pjhfxrN/GFYhCUeIOvt9GDtmyV7wksgVaPpS2/YM8IkeHPE4N8h21Ud1GJHPBqkKmYXai+c1S0SG5bq7QhFEEjAZkIw/e+9EeMZMTKopVo5ucGcDxV0+NvamJY9hO0htAzj+hbe07ilw5bk4qgXt6A1aO1YzJxOPfiPO+kd9BJySZ53YK26q64Eck6zUOImHpg15dvFd241AcJwo9lM0PdnohW1frkpcbwz5/t05W8T5Tuf9UitzUVxAEJZSVqH6SPWipP9B1cRztoG03RVvWrABIYIRERyiuOWxGMJHAxmNO9EsSFSfKKP0HSyVZXHUhTeGEnO4uhbXZ7FiX4WUZab631zz2HotyVY4/UN/XnpHGoV/G2HLi8a8EfqgwVX2GSEmi5CVoO8gOnDK79mfm2lf67N+AM4AdggP8ProKDJ1WTG7Dz3P7MCo5BzVs15U/1zp3c1Fpfc4o9DgsiBG7e4EGA3GJ7/U18m8ltj/ssz6ceys4RgDtICQZhf0/BO0EWH8f/LYbOxLFGOvI9Tr24qOOurlZzADlFc2Eh3unzbxyqDpmVIn4ZTCYyNrPfQpJRH8l6u01aR66nr2HSVv5gnAqyQrCmXQORIiw0Vj9FFVIJkMJTBipWhf+1LOKfl53mwQVI/mzsa81wW/LHJJSTQkA34FqiF1Mf3qfZ54Js3V2NOCZBTKPwCWzJefa5+xpaZaY5KsrMJHXg2NsB/8fDMc+DTkD4BruguP8CdrzGvsCpoqGHsPkgI3SlvGYT8Dyy9CO7nYadrsMaXad2CR5BT35yyX191xZqdWqSQYyeRdLWC00YJkreHkFZ1kPa9R8aDZmenEsr9oeHEprQqlO1Mb3N6fvclQH58F9/RI7pt7fAEewww4b+i4tGF4ms+kjbFJkiffOhR7VJnDsv0nq6qnBXwcOYmzAs/Asd/RMtkjyCDp7Oy284fsswfdQs6i/yBHgwO9nwfs4AI5ZgP3OhvUlWHkIC4DA9xfwGrBfoymoBznuUyg5zVK/P5z0kF2LkKSwD44ZotF/CDUFjUY9RUna9+YQAF2FxdIr/Xq4sCddRVQJDtKpv9PrPdrKVRGOTSXboFlnNMkVp8s8aUBIAupZxzsXXKA1gJ5eldn9tIFUcVSHgcj1DmLK6eGw/xcDDSEeGkH8Odr8OAOYTqXx5Fmp8vs2qno3sxILe3RKCKSAXNqXYkLMDzj8hu8PcKHtAU30ie+ty9WCuKdxpSERpUGfQ59JIOo5+SrzLmFdh44NRLlGTtphqnRcFfDhGqNnBXtTjYhMUUMsI+KQ6nF+Jh0FaooEo1xUJG+pjZ1+nrKhJDUyYwLOs9BgTbFlqaw5oeU6zmdvViEQSOASzNxzTr0G78t6gGWdN/beOx+B4xckobc53Och8Pw+jQUtkK8+wOIRkfpxEBctEk1Qq7H3fwl1zBdNqNFUxQ2ipgVVTUBClyhdZ/relQRcaxiiq6MWj1QfI/5SFbFHfCGQMAirogFgkTIDXQKz0uXGI0cZZms9uAiY/w6NU71KZc2LLMRwzHUXEl0NulkwAcJjutivSEtEIbD8fUioNpS0ubguvXbvdFml5jMD7CwwTPHjW7sKpZWyveDLyhYuy4T5Qcsu3IgbHoQihoA2gmfzKvy+82kX6KIsqbDpFtCeQ8FjVEsz41BiVTkQBS2D6JWHCwik+WhMNpxMQFBfixrBx1jFDxqo0IKvAisEkybbIMErEpqATAeOlPe71YDJZNAOYMPUXLZsWPjeuBGWwZ7TOZ+rgnS3X2qDTREZQNVJZF2tD+0PsoiodMoEgm13V0zXNEktmWyvDb3cR/j7SpPVtZeSfJiIIH4E36fJtFEMBx5w6IVWVZPU04EWepZPXnv3ccaB/zvZkcofhq02AP9sBS/9I7D/h2HfM+D7ObDvnbD8L2pPxAlQFtRZryRBUPMHjcFTkHPtAYZzcypwXZarS975Gqrz8Nxe5BnYqO5JTTgBOdRds0In0mZvxaAytWZWZq0Ms0UxZMgGqt9VAAAgAElEQVT+AIrg4LYv6HLkumpWov8nEzrFtmWRjrjtW2SfaAqSEIKosjPwQmbKEXzuXNrpKy7TyjLsyJj68daR2CyqbOQKPehQoCkS+XukBfOdS5guXKyLAhigB2XyRYNw75dznNhsm+fklMTGe3ebu6RRJtvKgFmICvwYnOev5KCs2tyMuGGhzBZU+63trz3sBKa6B57bu6zJuoLUXEEkiuSdl8JzfBb9Mj3kmzGDsiTSkJV4pmYG53Cv3g8EiJ4kTKIczviPwfI+uJ6rYd8Pw/oR8BuiRreH97MlfN8Oft8TlueHhCQV8HgWAsOyxFgoIgNNliGoZoT1WHhbIgna22QMPRBUY7DcEPb5A0ntapM4/iwFlckLQMJQtYNEfpkZfYBnevYibwov6DUixozaQAeBPGynQy9/9ypUOempRqpyRCJqgIluJcERoF4N5x8yz6/kGJdaO1QoBLSB5qJGBO1E91wutg7VvRZe0tBck2YBHG9b+L4AtrsBPfFIEmJwLsQ/gAPbzNQ4qSHT0LPQHoHtvwffb4DruBjW+2DfQ+H3XbNRsvH/fuqu1ZxQk7fAuX4lhUAgGJACQ1i7BWNEss0gBBhgEaQwAZY1WCS4wDaXsR1Ds79XOwC+n+klF01sx+VzV6gu3UtcoVbCgR0S0P62J7ycf8A9PwnbD6G0b4CjQAhoJ8FC23SpK4r5p2PW9Z1ECdXVmhOd4tjHWxvT2pStKgAkG5X2P/0Dvs9kaC/5XDKz+hZluleA05cl4NgXIJ41anCbwe87wHHnwDYHwPohWIMBjgvvWe2Cgh7+W3/Wsd9fxeDW/JKdOrXbIGPbyKnXZnwTahpdz042KhZLh6LiVPvDpfbZBBmCSzNd/UOSReX9pCpXHJ4eY6d6EP2LZ0a8+R6HquMY59bwQJ4i9ak6geqrI3jkwWRzAWxYSRBPEGV6nGThHp/TuRGwDzlv0Ga8C/7rg//eshra1BqYYCrTVVAOQuqwFe/jWUoM/lrYgug/LeTIRobWRYN5mivv7lHTc2tj08sTAnlFUNx638xqzuA4qDuNcNemX5ut4YAO4fxlGT+MV9PXNztvtTwSAmqIQUiBczYOU1m6T9N9dWabxQzIyXLNCIuMkt/LiICrHaATWE7m6MEuJ5MPIV+UnIGXsxYwIR1XsLvi4CUKqBO9wV8YdIQRrmrMm2H9n2TCDBPYQ9+DAXfo0BJyxv0I7jGB/yJYPxDadPh9C9h+E+GN9ga5rGQbmvRgnNnaenoHMjNOXu51cFvoIko+TGxFlbA1HYJ+0dRI9fLgFzM6gdaWmAIdqVkTJy3rZC04gf7WBctt0pudqXV5L52wo5ea8tsIkjZLNCKo4zBfZk6vWk0TGk3BAcljeCw7xAXOg9PEr2Rzs2lAQVny6IvB8PGUKk/JGjok+FsUEjaBolBKgRySN8O6KdM87qmu9lwC8JOcyTZ/LvJryov4PIbofkvgE+sDCWxWYVIxXuXSCAI8/BCe9gLjdreltQBGT0oylXT4ShTHdLNcwT7Lr0uIdguShhBzU3KfBqdFxseSzRd91d5zzOpo1WsRsiuEbCehN41p1TewVmm9qA0HTD7CWBficjA1BgRqNKXpBYiOdX6l95E/QzA9K6458AX2ATQd56CIWb9BUzab9Mwqx0pFfsAJ3uyJ9m9+SGoBStCOjxfarSbAJMw1R8Uki21havALRtn14L8fuhRgD5DjMshixWy/FXKIVgKXaYgY8Rlevnq+JKDFVrXfBBra+AUOCRk7UqWgyJxtqd6GlW5aEDFYs6hMUcNPMDZn0rBZeE6zUbXGUDU+b1j+H5ath7ZRAxW+naHC7LQNrc8qYYes5YWgNN82oyFoZ6921MqIkAyd1wuOUiboHXS+JdDe6qo8O+LRa9nx3lScg1oD6JWqvFosbyIQ1OGw/mBYGLLQzCCfpDMMtwliV+c9iMac8kqUc2agj7qhLhYvVHExW99B2s6wLBC5EgKLmuS0I9yEV+yyy69Fx7XrdoVz/MFixXWsmspjeULAL5EF57yKEZotpAEQ8YwumfYPuK/NHEdD/eBHOC3H2hmTj1EdCq0hdv8k2O/1K+rbM77/ETPj6pCudti1ZfuSNRgb2mzDilpz0hoAawkyuQ7Wv015NBXBFG0qHMfqQtqmsylZh21CRaym86Dg2GmKd/9YCcEMUpBMdHb4NExjWYPPDsphgiR/Z/q5y9JpuCLRx6L0riYhN9wgdLgy0s+aiO2ex51kZm9J26L1lGPoGVb/ohTUYVPvrsR+hdPYJjyk71LdkTY47T6ZrrwXhZBaKhyIWprRupJbRAIW+0FkEc9PadJPyuh0NPZaMy2bgiBaQD4Fv90Kv52G3n7UsKBtwoCvhvkw/UWc+THNd7MQ0+KjZG94T0fB+klwXRdAuwbWvwv/PwP/3Q//7cbgMa42JcxJdi4Lsl0PUVghf9Qx6TyTZhr8fn5AlHxB5AdwwgZpAernXfHl1unVDbZTrrckiRg3hvYISmpfEo46pZQrOmmcSb+EAb5xo8FPHl2+5vN6fEqzkZVELaRWgJ3vZSpFrgtWdM8rOrs/SpkYcbIlnONPBG4RzMMGMUkaxAF+NpuSmYmYnvp78xwth0ArYP65nPvZHInJFkrQjxyZJ9zrtgH5k1JU3oLVV6P4dAFRAwBaPkKJaS/pBLc4+U2oozjqBthvObYQMQKRuhPeGSJC/wjrSAn+Er8PFCjYN3Y77VoW0gM58jlIFJ+gLzfvLT+E5uRDkjLfCm7jE0M04HZ8nFxfk9GPdbk67WyD5lKZWpwEwaW4e/0cbH/mg+1OIHW3HIw+xl3wu5mZINCsP/YBW464HjBttp6vayKylO4j27MauCIetZXEqVkDqgSsykXqe8z66wa7C+kZxxACf9i/4A1+V4zSOMHulx7lMKpTKb/gVbKd9Km/yuTlm3qIx8k+JN+d8aZrGHolrKNrl4g+E6omKG/ZVvqRefsnGeGADQWFzvyDgWpMCosWxHO8jIJWa2uxehDWd6/TjqNECHyveM6XSBspp+sfkI/pSxZqDvvPOv6yJjQBXAYbmwI3S061VDXhP+YoAQY7a/d8gghrJ0uRO/RdlB89yqaAA5FQ8gcCfbpJbe606DtHE8W/HUH54JzzMOJlckmOOnJUmcSUpGb4ALR/4Uvw/4Y+s5AI5VFkBPb5IjlDh1Mai3QwsgDqlsI3Z8JafM3nIERVZxC2gAbgqlBpH8BB7DzNWvbkhHEZ51HJr1Xdt5eNJ/IoqqFJ0a1QAZyyqcCsqzBXApPPX6Uoz7DxM2hBi9ma54YFtV5duDFKZNhWpsf7QlpkDoZMtBur/dNp9U1oBqQy/QRzsHTmGU+7lmqf8KR2nPZkJ4GcZVMz4DrH+k3ChvbEH+4N9IKqG/xw7t31TGw6niRBtQSilOgxrFV0tNNh9jC+DF2+6xew//x0Fhp22h4MXxnVnZ2o53ie4Hr/Qs2bCWP1Iak9+XalOsmYYkm5JRiEfXDTHmlBGrgy3td5fqTR0RY5469KXJY6kkPvCqHB18B/OzXihDCEJEn977G60ZV399KCyS+lJ41b5ezf1NTjphKQKKecUkEDTpM0CK5n4QVtLyWbyA/gwXCJrL6zjlx4Vu3Dl0hhyX5vwBSKEiXG5gjCQZ/QtrR+UTYTrEI04Pp+9CyPcX6jnmK4CVV9zNzbPegfaDPAlKLLQPM5BTkM9AGitUrn+q8YCMPmlKhLJ5K08gTPrrQIIMiaQNBme/klsac93qlNAG9grZR1qlbH5GydcXqyKDNFGA96onp7FGHu8PsuEmTk6kg4kFHWmGb8njeB43+bnMFlMbE5iLPJ8nyKTVNHa97EdQcZDSUqAc1wdo0kP+CSysl1rBIFBceC6hyCSKiY/JqcI2tvCjiegpo9twurtIdx43g67LMF8r+zI44cf26GhwFPCMAX4LgP6HhznBzDlWbT6DMJUsm6zsow0DlaZTUFP6srGvwi25LKiCf7y2ve98RrRflrFROPXSVsAQEgCFRfDBgPkQrV5gpFfJ+/NaEz7avRmllAFGyGvk6jJCuGsQdp2UjFh+cfGDRnhaHg+H7ZB0DvBMu2Y4bfkVy+XcTn9TvYfW6RypA535jwA0yH4zzM/h3xjkVtCOvkPTydfdr0H+zkO39oiXPoCVwAS2IKc3B5pQPTzjdOnKHvuwsVsLoWUQFpfgzTtXxeS2UNurEVdz3hldMUzeo+0hReNBj/ZTTD60ywe2Gfi+DFvgeOvV1X30BbA4xEh07hxMKU1r4XST2RSQSBY+0E7XGdeWiZaNWKBr8GShmhpB7I9g94jsSZBs3GM80ptpBrK/gA2P7H8FqsNvccpyK/H9ZPRj8TDnxD3WUQmIYrYIlp8B6Nk2+pc/TBdlaLM/0F8wx+Ceufh/dyOrTdQvLhpGL97bm8Ixm1LNix88fQdc2FbZ832okoIuOEQFU7Eo3j71TfRE4mR9VhJ/Ws8wNLWVt0oMy2M+qufsDTPFhwOiogCmKIqjC11Yv1KzH4tdZx17s+fq+PYHSOOEnHfRs5IWskNKDTJV+E5dFcJ6DRgCfCD22vBXmJ1acZaoFmCWoXVFQzof2d+P49IdmQB99mKcIsGCezGsGFbe5ClJxJIJLhFkEEMjHnIyCg12+A+nORqV6dfTcT2anh+Q/C/X8Z/r83RPq1SP0EyV1geS+aC9BuMqE+VOfVx+CYiLp8O+yzNWimHQ3ecztlDDqciB6gJZlhKHwAamv4fqM22Yz5K96z4xvESZG4Hc5lrS4dJp4Un6AOM6/OZMIQObvZMs+xusCz/WORCx8XOaR1Lal1w4K3v7Zag59mAjjGQ7DPxn4Ov0Bm5W34rGTCPRqL8DS0c7GikbzHzU+7iok/OgyUVGSfab6DAQFyUgwjbffDVgqFybOE/3Ymji/cvCrMVj2Mk/d6MFjKDszlF1ufBiLhsAim9lS3hg+gkjOz84+6+3y2XLmU2Pu6Caq32Bb0DrT3zC2tdtafNlEj1UlVfJwWV3DMzUznHnjO2CHsF/2w/RPk7KswhVvg+XmMyUFRs3M5qShcjTTx5hQAMAC6CokE0qxnii24GutBqmwWetpTUFZPk6AX8XUCgQyHvhCorcipowe/qe3+V4Qae/gDkVAj8hHONLztWtX/LmyznSf5TZ2DNg/NFREzML2wXJxYyikq/9SRmkF2hX1u0Z3ZaEYV56BUtVQRTEcRhVmKBkdhMyu3nTtoOqKFVZckR8HFmupKC83JrQGQRlQmp+ZXrWClZz79qHM8gUsh6bbQ8C90hCsot5XLa+2M4L4627Iz5JJdptKPPkfPaYszG2Q+oUO1LuJlOTE8wU796H3QHmSWIE979XNFyow7YLU/WxjwSptPyo9gtOGB9W5CAlaYWJELY1CewK8DUusEV5sXN52Z1wCZO0gIlEMRj+dYuezoaGcRyu+xgDy1ovyTlrKMr6bzHsM0T0gt1TXP2pedIWVhzZw3SKnMSkt9l7prOhyRPnSmSSjnRIPYufaF36+zHIMmbbraAOiT9l1UOL0Yjn+mUw+TOtU3NJEGvsdLCXw03BJwYK6gHKkr01mRjXAp2XwpJRCSjC1SY2v3JaIVMycM7Z/Z+uifZrr7L/eQruzkXpE2R+fcGP4/EU0M9jcYMBv3UyWQiNrMGyZA13/hvyOceeHXLZi0n9A9dA7VUNxTDadokykqYKu8tksYbho8Ab8ts/xrZnar2pwDM4tWQsL3wzH/DG0XD+gTKxlxIHVZ7W3rAcbqaVh/Ew9+VvECHxpMiSLG7p8Vn9/IIbo5HOudcKxL0NeBSSxk45FjzkUn/JRkj+V2GK/JhCHVSRb/HquG6iFpHnxPWgOwuRmT3AGoE7ZO0eSd5/H7xEQ05EdwZmOqFNj8JBOuRrFNrTn1Xm6fKVOz07GI2k1rB57pkNO4EZWD7S+F5Z+Ns3EJF8upBCmwGNOY4XeK8/8U2i6cDyPwMJlJ/3G56hbn/wb47UnK5qp6lMqcMhyrAmO8zbK4IgTVfMRiM6tq4Fhaaxy6QTQhHHcrb6CLoouixPdbNZUXJdrA9yVy8MvKMj0LPruy+30t7PPOACvGYLWYWD1hCoEsZxVPq7H1NNN+iI95CWzRUOSni5LDGFYapOzeuuxMx1R0kUECJsMtkQfgKjQtkAJ9Vv9issNLUgXv0FyK2keDJBpazW+j1N82AtbodSL86CDHXieZAm0rmdg2ge32g3Y+sg97GYcuvFiTOQjsw0EhZqDEus8uyjo4fGd63LTERxRlZHTaCZIFWKjsVWZctaFBlxLrld8S9fK2w8EKx35C21EOqvtbTpn1cw4aZtwh99tvCFTzMqn/R3MoEvO1rQcfOlrXvAsyQd9ipPtGG3FbLIUOx7gElvcExIXgiD8GmRpsmKCl3iBPqfn8LPTAx05CjstvBIQrwGvOrmDmtzOSsUnZCXhBDzsBWwMGTFByV34+R4M+2zfo4e5Hpe/2YkVmrCis3gbP9L0hArsi9ZUQOQipBBhFskaI/78qHdRB5IHPykwXZxLP1H4ylOh8Ci00+I03c1CHBr2Muii5nlBQEutu2IOMZHwWHlAgQ1pvPfIq5xPIKw9SGRqCxncgowrsNyeIip3pRAyu1e4BleZpqvJ7KXNrWNSaP5j3lbFXh8ZKuuGcvzYZYEtJ+i8eEYJsmEhNqn7yCcGaBbQ5MHz2ZUsjRrFp+P5rTgGVzlHfLCp6ZolxapWkADh/TqsIAN9hvBebiuj8I7OHgTZnQfspPPMSPOfTkXMBSV2h7YQTBuwPWqjmoNwWntNbYX0GPLs9YHkobHMiLD8GTcF/t+g6EFHyGPYNrVXaMmBDHJYtU50/yWCVKhhinH8UBXgW2ifCuDiNB37gyHRaa+ZvbArYMNumoS4mssTBhEV6LqnLT3GcW1NhF5SXdMS4gRVJfBOT90A3mXRCBfz2JXoxwzQYmbNgrlQxs86U4f2mocCB838Rlo95ICEm5TQotLJGEGrEl0GZkTpu4Z/a6UhAFHoW34XjHh/mDTYiR45Fod47WzcWKEZadvlRAB0GpPNOcicgZeqZ5K0dOJFMPBdev3m30z5rnyn5dKp6PyzeGSfPw/NAJiZYqhc5QmIKeVzhwEAnmfeJv1sQmsn1KIdMVhOJjNDIq9mozRXNLXnSMnZgfpah7+ncDXyX08mMadmPqJnHIbgcq0U2uy5KpemC7QsPak+OJsiy3IFLPmLeNUPLZGK2mqWIZ/7sMXYAdwgBcYNEKKackTcyjiGbT6xDqBEcE64P6/29G67jEmj3QHs8ICw3vnwcgFxEsofWzSwyOEKzA4YnsTQ0Vv6ZkbI1OwIRcpKhUUllLbWUrv6iNLfONQJAtYIJwNV/sU9s6gO4EtnP7jbwbPUSAW6qspiHX5qr5KcaE22bEda6wGclTDmYvTBzqvYfZw/yhED/3cbZpvad8nUXHFis5T8hVmJNZ9lF6gSyuW04TOD2yyS90bY6XqLc9AA/8XywxYca4qM5Jtyz33Lex3Low2yO5JBfTWfJEZuvqAdnWFxCguvmhLodmsIm7Wk+eTrXpnDMrgAhwhEWmlCfxHg8osxgeRF8/wS0Alb8Ndx9Ji3amUwDGXJCiUjK/2/vWqDsKqvzzJ0xPJrVFZ5RKUvksawJiTPn3AmgWEEWhYq1LEqUmgJ5zD33zoRQILxBA0VEgWTOuZMECAilIAgiUBRlleKqCNKClJbKEkUsWjSoQEXec+deup//v8+ZIQQQzJn8e60/5z7Oubl37v33v/+9v/196atAS7ND0ZHaROseKz5nHcAK7wDKDQSKHI1a9rBlALZlUOyrgM/+Iycy4+npO17dJ+sU27e9LmVqkaMTuzDN3t6Rs3CEx/0htB2kBeS38NiX4PyqcdIVF7E0sqkb7m8YIJR2zRte1dVfS2332meVC72oqhq5xhvCCVwEj1kix14hZXT1XM01GGrnSr79EgkiswdVBdZ/2aZdWViM4bkfw9hBHZbJH9jW5S4W92BE4BGLht6gc6QwH7PPVP5EPcE+A3KJk6yAMMt2gv/zKskVHG4TnTajzLRYmgMotQPoqO4fHP+1CP31W4F0hoOdv/HPmwvtIy8T15aa/phqEvgOUCKJeR7OuQOOxyD83bzHipX0Eqbgrs3WjKgGtkhqAmR0QtOKR01RdCAr9k/g+b/pq6WFWizlAnpIrps8bVFoM50Br3M2MuVKD33rVZJLOZow+PJ/CLffzxDS1RKSYw9/k9s7k7QgB66DtiGKKkOWWCktEQ01laZku9KtzmsgGXUoQs89mEnfAOcAdluO9NPpMjj/KXRi1EylxKLiAGad+nkTAWRnmi1AqR1ALFyAcPyK5pPiiQ7gffBZXxYOBoui7BhOio5JzHacBBeDdcZlVRexT9pCUO6Bt3TcWCRNbM/DOffDWI3sRNq2a5PPsQEqKbtwMLOPtiy7iO4SJzCewwh4scuW0jTBuf8Br3E8kmYW0Vgm5MJQfwAGduz9gvdkTYe7LqAGizrtkowk5CImjY5xr7uUsuw9sUxedTZRknc6fUv4/pwFKxlENES8/fTY/ieeQ8k6/9lHLWZCV4meyNBGwf0DkGCSPgevcC9LD8HhFnGZiwDq6RmsepuVfwsglGpwXGn30nFjxFZnDpBEYW7yc2uvaPsV8wBSPsa/JZVelQYMczaKMaHEY4bdhTch4w/8Hg6FsXM1yS9EUo3oiQVCrAtDfxIm/qSAFc3km+igqbJanhwxp3SLSRZiwmGxBOJhw5rqV+EPvgauWQXnXwzjFiJtzAE0ip2EpguLe8TbRcRWpOw+DFDC7rGP5yIP4ZPnll9WilFJqqpyIywe7aoOXSj7e6lZ15uKVXd4dmGM7bHZYfmbRNiZqBBlJqdgyirZqnzKRgAWc4ElsSnRDSh8klJDP94CxWxyF44LC8o6ro8C/j7PMAkNwW5lZM/Cc/+HCwRyCMD978NtDOOvg/spXHMcfucRi3dOm7zCRZGdm/S2LTjYBmyfxaty4B4THZw54JtkWhPaYTlkY032etOzsUr5hsgbfa1WxUrbpj5rJ0JLZaU5nPYa7cZZtHVLIMQk98DrNGDsNHmeo6kJwl7JU/SyWCVN7l7dBoiAZaU6iWAEPL4lSlzDOV/D96F9A46OTPnxmT3o08WykuEDcO3ApeYEFCYpiXjmawQwbxicp6l6wLmfcVyAkqSTvMGKuUddiEpWiBeBke6AI0LCF6IAT1Ghelo8SVK3MNmpuSgikVvWZPAhfuYqT8E2divAX55F+Gktdz56a8cMnCcCyWVpeYISR9tYLKw9Uk/P1Wrj4qrvWInS38BjC+C8b0mT0ctx7hqV+yJobtsBdYjznSiiT0O8P1z37g1xyb9GNDQNBURRYBVuo7LwI463Xh2VhQyrzgITSxypJctJIoCTN5IcsxxcgFxq+6B8tkpfLSuAgNJ1Rl+Sv3vGZRywsd9F5ZR/kKYu2mJIvka6Ag1YZ7PM4r81lYFLiiquCtHdHb7kb2OoL8kuB6eNJyfL3JCOfMdRQCOqi3jdCGN/B7wuU0sNYidX9j3Xaejqx5mtEHQY623LPq4XAbPAP4L/4zZ4zcvhvPPg9kkwUDMe+xYG6XaSYr0fE5IZ/P9XwbgdrkOVmhc1qyyNP+0Ck09hXyurW5IdXcQ4mAjgJIkAys0IlDh+/Bdg7Gy3jtyZ6ZKB30JabiuuGfH3NeDCdZFlj30fgBNi1T4RqsTIb7LvmKxrYDBM9rchJ5CaEDoXztZhQj2ucFvmeMtaUWJhtqnR4TO0Y/wjIKgtw4yFxbVOOgDDZsWc5kLvenb9PHI6o6ooM7FxJ3FdhwzhlR8ovj9lA1bwDyHKRNZLtyoMDrpU0IMXyXalqWIVYzT5HZZ8MjJLj1pE5zJhC+BZgZcXtOZKigEQ+rgk/SV8lq21QpJHZ5K230OCFWhbMhgYsywSNdgmXCJ0WXUsoQyv0h80SjCdiok9DHs9xFMTPBQiK6HjmJRx2pbFVcp/P8V9Ipy3Hb7u3NpKq6pjkHVZDZmAnVpMXXH9jpE3p/VnSk5tXn3IMYw5MkpuCx0XYkp5nzTRW1KVaMeJbWd22xsjqoLRS66XXARX0/pEHIArAx5fVGsuaRcgc0Yk6b19tZFuW0kynaYzKKHX0E7TV4cOB9ukEYMT+u7N3ra5Fdw/DL78K1A2i0VH11C7ra6qdFy2Tum8WlINuALOPQzG1jZzPAmdVLfnJcx2hIkzAuM5dTgq9kHKxxY1lhQRYzSJX8nXnD0abcOU3xaMQvkNSmg5h+dzH1oXz7XGWqQlHI/zPQYljQD47yBMQOmNOunjia3ms/LNZSlvG+qI/2dWp+AAShYNDAx5vEBUoNWC+xCup3NhfArGcjj/c/DYBXxMT4Dbn0RsPdzeolCr7VHGIWqccXruttkotwXBEtAX4If1v5QA1Do8T2Lu+uMkZcfAiQtUz6/BQ+95ANuxRAkxNahwB5rUon9KCUpfqlSBlWNt2G+dARyPNXLrnSmAARi1GIAPDGWWgv5A0QL0URTffw7GTOssgpUwN4BbA6ZiYqrt1wk8qjB9c0rML3bVL2ITPEgp6y604CLG/wj4/6+Hc36tRB++5Nh0kFVpv+WtCG8JhCRCjyo0kY65PT9tV0Yd2ky2Hj/GHz2cgwy1M+G6Z5RdOVLdeHB2dtUvVAGWKZtyeasAzKdADiBJT1EHN/OQU7vO3fY8T4qaZNxXIpRz7ABoO4DVmhkhB1D2iIAcgKVdTrXBokew+r1aa6fyDVN05+SUiF2o0dzg/9O3cMSdP5B42q9CFLEtvO5BERNEfAOefwxBSa4y8HcmAYhJvqVrBWW2dlIeeuGOQyeAyclvwvGz8Pp/ZqMXTFDCe1nPyUlKbKrY6MkKjPlgY7S4BVg6MEHJuNSCoAs0ivvEKdd1/clpl9jW51PZSRHqs6UAABNpSURBVDDqkROHRMjyhDZcRQGcMwVLiHVJFIJzQKhtf40nwcCS7E31WO++rGkowx0/nJN9yr8P1IrPdouZDqwG562AgcjE6+HH+M8Rc9Ej99vdcLwNfqz4+OVIPAHXIIHFp+F61EKcPklU0iulKtzy/ERQjUQ6Iqvi6eoATMSj3ZbDKtBaVmmwHMlrku2nCeI+4gEcsdqSTQMCksqBNHXVWKwzOIBgb8j6G/BDq426JKV07/UwUUlzIxzVqm4YlT0a57/2uYRtpwimEtVzwBOMbB4UngTMFYxRp189XaHP7z+0trgFaAjBSam3AJrNR+7GfOIvdfTZcPsGplCjCoxoJxLhzL/N8YnC8GMO9vuoVBhWHpU1Z2hoRboSe8lBcKtwYUVvkgCJqgMxPFh46KVVtOryFE3XQdZfb2JO4t+FQh2rEeQA4Hiuhv2meqLY+Lpkz8fLCgQiyDPTxP0Kxh9JBNBlV/S+oylx+z2e8FRWdWVSOH5Tv6vQjRfsrXUMgkirDjY1Yemag5STUNt/FX2259EcWfQPZq+S+8hJX31XsO3jmgPAyoevbjSLDqBWcgfQUd0I4vmrOd6/fPmW8iPpz6VU2xbEpgrQfpkdKImEhB9psJLlOcBhfOiYUb19h/AUYN+6JgGb4hx6TM5C98WDIm46Xk4kYGrVgG7UTL6RzFItSST4fEEqJwqW0r/PaPHvEyxYibYbrFgjt28zE7olTEoXy3OVyHETuAhgcaE9toxVAJnIWWoncjyU4wHY1yYNhbJrTLgQVmiStC9sAYKVLgIwQiZw+xbZ17YikcnCxiMJhysGHqsOYFHJHUDHf85sIt7B08otkITfuOH1a7HISzpsKyPBgpUrAshTXt9gynqMBEzSa+S57kkcwNFldgBCvNkWNeTDNQLoH/5iV7x0pVV7OsPyABSum++uCxFAsJI7gGuFCQnhwi2JBm7mBGTabWTVFR23QDgDxstYBjQdfdgTMU9W8kq06CKnyiuf89I8xbv2W1D5cH+JEirh1xSspDkA90O/0tOZO5bc2/A5oi335THVXpivFNmlBAIl0tCTpM/BmCl7eaccvefwBfo3ul2YecfjnAgnCb7saa8LFqxkDiDHeHOpY7xJ2AHA8U7rLAp7478UqrNOGaHAjAGg9/9oJJwNllVajkjl9YhIs/mmLBacwUagHeW64ACClTYJqOKmo1L7x73uuAhT3juvkTnpME0IynG/SVqNywMBFk4/OH7bOkQ7oeG4PTz2O4kUHJW8UHc/DtHTVvy3CyXAYGV0AAwm0qTe+Ybmuy0SWD+IG15FWSaJRgxRnAgNejl7AaTjMbtC9/+UEyEaOVcC/IDTl9QSoICH4HhfVGtWbOQQLFipbJ9Fl7kSFoT4zPNPJJ9MkwWTHolRtsw7ABVcyXZFrkGmG0s7JWwColo+HM8WB9Bbbazmrk5f6ThElYAcU1Mi4KEkuwnP6a+PBBRgsBLnARzBR7qUa9tCecbcAE/GgpGPkwkIuW2IC59FNTslrACMI8kn3F5sk5sS3WgJsOH+Jp4TckzIUEfFSfTEYQsQrJSTv7a6S4lJkOWIufGJH7DN0NfsWRjby/PdhVzAVrgPlv1wu4Q8AB2JXg7QLcDAcKqVEY2KPm/VjyTh2UKyFrh+uZwTQEDBSh0BmKQe4d1F855uvwBjF7vyG3ozFCD5b8kVtMu3BSBKr5dgAr/Xb206WhlRXcmrRd/BYgB0e3SY/B16PnzEmvBDClZaB6Ar++yYKwBa8npFWIfnSqhbkUjAJxHr2Z3aQVgyLQCexEn2C5jcW8lk77IOrlo/H2/fJYzP43Fe0hvv96kD7RsKW4BgZXUAPqm3A4znhOyybfbLH9EQWSeKWSFvUoWl0pQCJZMv+P67+xfx6u34Dlw3YLY1jPW5LY5wAcLxt3D+NnJdwAAEK3ME4FY+pEV/XCjC2ybUPVRD3erCNcqUI+UvBg+Vjhk4cdJtV8lkJ6ntuOadGxz3YKbkpqNLZ/4A0hB8wCAiw48oWKm3AC4XAOM+EQUdjxUOnKSL5Ife0z88ouAhVQc6zyfJSiQG6piAuQRIjEeDTeFmdJHOwa7C4UBAqdKlX0vbBCGGDRas1A7A0JXfIgQZLQLKHEutsstlslvJbC2TLS+dPiCrASvU+SjZ/kwsASbpUp7sWcsLrqTqOM6U63oDFViwqeAAtBKwTtBxLV4lL8NJ8gV1AHGt2dU3uNrz5de5JVi58krEBCTHdC+JACqoDWHVouD2iDAjjxnH0ZHk4ceKjiNYsHI6gCWp0/uDle5snvTpmGEFukJ+7EQsWh260JYORTEn7ZTBAcgq3hZ039PwubeV/T6VACm/0XBdj7cKEzBTnvnuwWfgtWbK5+8OEUCwqZAI1D19XWCupC4ktN/EfFsdzDyNuG+WmZ3XzCsBCxCF/8RjcM+cJRNUgPU4DSb+o0oEKhGAbhuoeSgeykICMFj5rdpY6Wr88OP+C8W+e8bc9P645kuAfsWk47Zw3jNGz7BMWoAXaRivGgnGsb2XQEIsq94R5OAY5kTixPUO9MRh9Q9Wfuu8yoqeSttruj4S5ePIlQxd5eAdMH6oxCCb/DZAE4CMXVgin7nH5EM0t/FxWf2FAoz3/+LoPqJbovDbCTYlzKzoM2A8LYrBDAdO0hdhvEdWve79zjqL8PL9vjvwVmUT3pQdQJRXTcbM/myJarr7VQ/SVTfSPA+gJw95DAFC8rfqChFAsCmSA8hhAe4XMhAD72U0IGbL+5NmkUdgtRfO3OS7AAnIA+/1wajmev69jHuinY7ZTdQFWBceQFVLToQ7AKsGoQU42FRyAL4UmP6jlgJjqZfDRFhYDJdd5aCeHV8GNCBn8jOpbGSrZCL3OAfgE4DTsUdAVvy2NACNS0/AJ/W68KsJNnUcwOBKzwuQpMt1QkdeJfgcCfd7o0aKJBi2FHgAbRl8KbCziZb/CMwj8OaPasTjHJo4QDjux4lQ5v+LpGwIxydh7CAOICAAg021PIBMgHq6L1Ne0765JVoBX9McQEyhcjOXNwDH8CuZNO1NsxpAoB+lOXu4Wk/fIdFOV1RrdsWGGxFunytRQkuSf6qR8FV5vlvk3MOPJtgUiQCS1GT40+kwJASGPTMf/wfGluIEaL8sobPuo7/MkyRrbWpRQORpvFUF6Az5nD39taZ8FilvDo6gAtJ/SvlTAECqBJwepeH/sk9cH340waaaE8g86UeSXS8aAWNmIg3IZK/43IETCj1EVHZFI2DT4Ah0mX/cy3MJ7yl4/++Sz9FtPofiHPbl7YyrGAhqEK6rs3YA/o36GyPhBxNsatmeyy43iMBsiGGwrBIkkODTZZL09DeyrmriE2f9iyksfkDYcsc3EarwjlctTsdk9f+MTeJpKK/34fbFpheiExck0rRtuFprhh9MsKllA4PnGXKQdA8YLwltVksqAffgc9X6hTppuqJjV5u9c3qUiovK6tnZFCY/7uGrBP3NHoKxha7+s4+BzzG80hKivBsef1oigLb2DUjZ8GC5LmT/g01N6683aS88MOzYf7/LnX66rydY7F6SB6jsd+S6rmjJiMMQDCwmSPG9cs34H6w/wCgVRfV03Gxh9raT2GkdegLQFRLptAT6Kz0D2f2z61d26TUB/BNs6uYBOCGm2fCTORymXn9NoF3qEmhLVnsprboTDD2QV8y07Sbi2+sELNqP5Lylo28wN/k9/58Sne4I1/xG8gRtzf4LN8JCt/VZin+fsP8PNoXNlPf+VGTCGBbMbb+/g7GLTKJu3hIIlbZj0smuEccx5hNxb4sTyIX9GLHw1iU9Qd4XtzMvWmtBP5rEHKWkZ53ZfyORRoPjg0p+Qqv/4lD7DzbVIwCZ0DIx/sX1xDs4bJrJhHCJtPxqms2MiUxzjYPSOlWdtyjTr1sN2buP4Z6f+veTbJFMfgfccSKnKnNeT/eZ+FrCGFTP5k+2bQgWbMpatb7KioUsUdZflQCPMDmYpLMkLM61CbtJlWQfJfIMJtQcN1Dczu8b2cfZegrbx/D/ZBqz9KFI2X5k5c/v+7X9ubkFXP8D2/vgeRBYGh37AxT3ECzYZrAFWGu3AdvBpHAoP4QHs1RW+nWJECpRjTsDjXioOo8FhLxjYs2xAia/80apvCTM7/BqjyE7ty1LjuIZ7NeHx7ZQhzRh5YfP1p+4aOUqDv0lUnGCKNnLMGbJ59AeifDjCLY5bANGlBzD7I/XGeJPR6h5tEyQXjvBsJpgOgX/Gp5/ybMMwSrrCTY6ryEq2vGag3y+RBNjGI3opBcA0s/gnPPg9XZ2n0Mc0d5MY+4mv0Ke4fYK3d6Y7YliHk6RPEePjXCCBdt8HIFvjuk3E9Wi6lAcY5fJ9sgFJ4CKQ3dj5MCJNaLYQq09gtpGbqK7lV0cBGkUjiMpJ5cVm3Q9hvhCzPlzePwyGIfC+dN9BJP2aFtvLJ1+soJXYsngw+MnSrnSkZjg/yMO4Q46Z3g1cwQyZ2L4QQTbvJKB0iKrq+XN3B/vNPIEHJTeHf+tU9bptklBu4LKxFwI1/4XJgfdyt1oerFOByPOKHdQHRqlLD52I0pC7iWYiN+H17kAzj1QVYsnm/hzT2jm34dp34XX+Xt57x0ngVaXngfu+NtZtzch8Rdss7Q+wbqbFtl9iyIZDJOlffc6dQCmru75A23vwNBaJNI4CMZqOOcBmGTPRYK3xwmIk15WY9iDp0/Ac9+B2xmiDGHsPmvZ2qKjqpA8dy7MT7v6a567UCORKiofJek14sjasZc/4yO3NP+5dVwh8Rdsc94CEOjFRwHpV0QVx7MAJ8yvBxPmLJowNZhwyqpjwu+onk0g0YgbxD70TnhuHoyD4Ny/gvuHwHUfjhiKPH3SJCVO+DpOetPFl3jG4uoSTmJGiREyqWf7wus9LO+/FZuyIToCBvykjdx2hj5/2PsH20zNlcw8Y/Cu8NizVjxUIoI2h+jsBOwk0u1EtZGppiBn5pONZ9ThyY4MvFyOc3t6eM1+eM0PDWe04jOlF5X8zP+d7gDvpYnvWRqVzOTHXAS8d6pqZKdrtBIXiE+DBdt8nUBSKO0l2VJpE26ZTjsSEpVV9NI5R7m9c6822ux96Gqd/CbHkKmwRoW67OpEs40UXRUiHnG8A7rKY2JxpZHvThW01E1Oou7be+G67WGcBs/9WkRAKVqx3IB4lOrEafIZu73uQVj5gwWjyVZNVunqLaF9eoOF+royXZKNS+vsfXC7P7+C0159ggDHxhhWFPTokpOIP0BnMTha2LZke8I4HxmKaOIPjWpLs6tiYLafqggcydTkc3YbRGP44oMFM+G8HhUcNB1ba6VFeKwA1GkJRmBcJuJMfZ15wwQW6olktVbIceTgxyNdbtWX5yi5x0g83Ab0TrYyw3m7wHtrwDW3ax1fkonY1dc2qz4Bh4S5aD3c3l8cVMXmEoIFCzZhkrlautb7d4Hbv6R2WWUNctUBhtRK38CTMC6EMWcDr93NWH3ZCuD9WrahqOSPKalXT8+AcQf8X89jKC+de8rl1zZbFLfqC7XXLY4ViLYcIyHsDxbstXIBBk2n7cLvh8m1nlf8dGyCAg/CdBuj6ggwT3AXjBUwAQ+Gc3aC47QN/Z97HUnh/hZw7Xvg/I8hmw8cvwGPPYE4AXzdgaUXcyhPKEVB9Hkpb8zwt/RceH49PLbY5AlssjB8ycGCbdAJMHOuTphecQy7RVReI9GMMRXSjDxWQPD6mQP1SF/B8zAehefvhNe9GSbw1XD7SzAuh/tXw/1/gtt3wf/zMzi+iCE9AYJwlW84rECLe/4z1xREg+DCxvnUU/y/LoTX3E63MobSPMB8gwV7XU7Al8m0MjADJtetPNkosTYWeXhtx6zKhOOnMhyW5TAkB6eAkxr35Xg9j0voMdxe+GQdi3OKWEnbk30SZJhf2zmata9Ib/9TMFJ4fFeTz+ixZb7A7R8s2OvOB2QOI5BTCkrSk+D+i1p2Y9hw2rG0YFHiSDsYhkvU2yxFThOYxUj0/jiH8epEWKhDSnptblHmHgGe9Os0B3AvXHccvMY7CxO/u+jEggUL9kZzAr46UInro+oc3geT8DqXBGSp8XFi2a0L0WaeHKRIFNIxQh4y6bO2dgFqz752AkpSD1t3sfR4DtyeV4hY3MTn95d2zR5eE77AYMHedCRQHzElwjQH9WV4b3oFTL6nNcRnSS7uuedwHhOHzDfIRwrhW0LJPeboxRujvMJrDoDYidJH4HgVXJfA6+3Re+J3Cg6KeAC6q4mHIu+zeFX40oIFeyu2BPHQiIsGtItO7r8LxiKYgNfCZH4MJzWShOBkpqH7fTckF3DsZdoBiNuGp+D6u+H2arg9CBN/blSbWEFgjAEBhLpiaWYKoX6wYG9bXsAn17j33ncByjlbwQSeA8f5yDgM54zAuBIeuxGOX4dV/RbZPlwirD6L4LgPPL/NpNsQgQ9H0iMQ1RyPIfzbCV9KsGBvt/XVbQcg8QlgV16Pkou8ybwDTvZefC3OQfiegP6w0gcLtmkZYfeTlW4Pzu3FiPRTWC83/igOXzQJ0GHgY73UHMQ9BN1WkIO4BkKnXrBgJXQKDW7smc06hMo6JMfUdwkmfF6V9vIhnA8WLFiwYMGCBQsWLFiwP4D9P+UCWnQMTx+bAAAAAElFTkSuQmCC" vertex="1" parent="sbZIVBN3rdydgRw7UAop-7">
          <mxGeometry y="160" width="46" height="46" as="geometry" />
        </mxCell>
        <mxCell id="sbZIVBN3rdydgRw7UAop-10" value="" style="group" vertex="1" connectable="0" parent="1">
          <mxGeometry x="390" y="380" width="250" height="120" as="geometry" />
        </mxCell>
        <mxCell id="sbZIVBN3rdydgRw7UAop-11" value="API to Web App&lt;br&gt;Business Logic&lt;br&gt;Data wrangler" style="rounded=1;whiteSpace=wrap;html=1;" vertex="1" parent="sbZIVBN3rdydgRw7UAop-10">
          <mxGeometry width="250" height="120" as="geometry" />
        </mxCell>
        <mxCell id="sbZIVBN3rdydgRw7UAop-12" value="" style="dashed=0;outlineConnect=0;html=1;align=center;labelPosition=center;verticalLabelPosition=bottom;verticalAlign=top;shape=mxgraph.webicons.java;gradientColor=#DFDEDE" vertex="1" parent="sbZIVBN3rdydgRw7UAop-10">
          <mxGeometry x="10" y="11.199999999999989" width="40" height="40" as="geometry" />
        </mxCell>
        <mxCell id="sbZIVBN3rdydgRw7UAop-20" style="edgeStyle=orthogonalEdgeStyle;rounded=0;orthogonalLoop=1;jettySize=auto;html=1;" edge="1" parent="1" source="sbZIVBN3rdydgRw7UAop-11" target="sbZIVBN3rdydgRw7UAop-8">
          <mxGeometry relative="1" as="geometry" />
        </mxCell>
        <mxCell id="sbZIVBN3rdydgRw7UAop-21" value="" style="shape=image;verticalLabelPosition=bottom;verticalAlign=top;imageAspect=0;aspect=fixed;image=data:image/svg+xml,PHN2ZyB4bWxucz0iaHR0cDovL3d3dy53My5vcmcvMjAwMC9zdmciIHZpZXdCb3g9IjAgMCA0MTQuMDcgMTc4LjA0IiBkYXRhLW5hbWU9IkxheWVyIDEiIGlkPSJMYXllcl8xIj48ZGVmcz48c3R5bGU+LmNscy0xe2ZpbGw6IzFlMjgzNTt9LmNscy0ye2ZpbGw6IzUxYjQ0ODt9LmNscy0ze2ZpbGw6I2ZmZjt9PC9zdHlsZT48L2RlZnM+PHBhdGggdHJhbnNmb3JtPSJ0cmFuc2xhdGUoMCAwKSIgZD0iTTk2LjM1LDQ4Ljg3YTYuNTMsNi41MywwLDAsMCw2LjQ0LTUuNzloNS4xNUEyLjIzLDIuMjMsMCwwLDAsMTEwLDQ0LjZoNS44NWE3LjQsNy40LDAsMSwwLDAtNC40NkgxMTBhMi4yMywyLjIzLDAsMCwwLTIuMSwxLjUyaC01LjE1YTYuNTMsNi41MywwLDAsMC02LjQ0LTUuNzloLTgyYTEzLjUsMTMuNSwwLDAsMCwxMy40NywxM1oiIGNsYXNzPSJjbHMtMSIvPjxwYXRoIHRyYW5zZm9ybT0idHJhbnNsYXRlKDAgMCkiIGQ9Ik0xMzUuMTEsNTYuODZBNy40MSw3LjQxLDAsMCwwLDEyOC4wNSw2MmgtNS44NGEyLjI0LDIuMjQsMCwwLDAtMi4xMSwxLjUySDExNWE2LjUzLDYuNTMsMCwwLDAtNi40NC01Ljc5SDI3LjU2QTEzLjUsMTMuNSwwLDAsMCw0MSw3MC43N2g2Ni40MmMzLjUxLDAsNy0yLjc1LDcuNDgtNS43OWg1LjE3YTIuMjQsMi4yNCwwLDAsMCwyLjExLDEuNTJoNS44NGE3LjQsNy40LDAsMSwwLDcuMDYtOS42NFoiIGNsYXNzPSJjbHMtMSIvPjxwYXRoIHRyYW5zZm9ybT0idHJhbnNsYXRlKDAgMCkiIGQ9Ik0yNzUuNTYsMTRhNzcuMTYsNzcuMTYsMCwwLDEtMTMuNDksMjIuNzdsLS4zNC4zN2E1OS4zNSw1OS4zNSwwLDAsMC0xMTAuMDYsMCwzLjU3LDMuNTcsMCwwLDAtLjI5LS41MUE4NC4xNSw4NC4xNSwwLDAsMSwxMzguNTUsMTRIMEExMy41MiwxMy41MiwwLDAsMCwxMy40NiwyN0gxMzAuMDdsLjI1LjQ5YTk0Ljg1LDk0Ljg1LDAsMCwwLDE3LjUzLDI0LjM2LDU5LjM2LDU5LjM2LDAsMSwwLDExOC4yNCw3LjU2LDU5LjY1LDU5LjY1LDAsMCwwLS40Ni03LjExQTk3LjI1LDk3LjI1LDAsMCwwLDI4NCwyNy40NmwuMjYtLjQ4SDQwMC42YTEzLjUsMTMuNSwwLDAsMCwxMy40Ny0xM1oiIGNsYXNzPSJjbHMtMSIvPjxwYXRoIHRyYW5zZm9ybT0idHJhbnNsYXRlKDAgMCkiIGQ9Ik0yOTkuMjMsNjMuNTVoLTUuMTVBMi4yMywyLjIzLDAsMCwwLDI5Miw2MmgtNS44NWE3LjQxLDcuNDEsMCwxLDAsMCw0LjQ3SDI5MmEyLjIzLDIuMjMsMCwwLDAsMi4xLTEuNTJoNS4xN2MuNDYsMyw0LDUuNzksNy40OCw1Ljc5aDY2LjQyYTEzLjUxLDEzLjUxLDAsMCwwLDEzLjQ4LTEzaC04MUE2LjU0LDYuNTQsMCwwLDAsMjk5LjIzLDYzLjU1WiIgY2xhc3M9ImNscy0xIi8+PHBhdGggdHJhbnNmb3JtPSJ0cmFuc2xhdGUoMCAwKSIgZD0iTTMxMS4zOCw0MS43NGwwLC4yOGgtNS4xMWEyLjIyLDIuMjIsMCwwLDAtMi4xLTEuNTJIMjk4LjNhNy40LDcuNCwwLDEsMCwwLDQuNDZoNS44NGEyLjIyLDIuMjIsMCwwLDAsMi4xLTEuNTJoNS4yM2E2LjUxLDYuNTEsMCwwLDAsNi4zNyw1LjQzaDY4LjQ4YTEzLjUxLDEzLjUxLDAsMCwwLDEzLjQ4LTEzaC04MkE2LjU0LDYuNTQsMCwwLDAsMzExLjM4LDQxLjc0WiIgY2xhc3M9ImNscy0xIi8+PGNpcmNsZSByPSI0OC43NCIgY3k9IjU5LjM5IiBjeD0iMjA2LjciIGNsYXNzPSJjbHMtMiIvPjxwYXRoIHRyYW5zZm9ybT0idHJhbnNsYXRlKDAgMCkiIGQ9Ik0xOTUuMjYsNzMuNWMtMy40Ny0zLjUzLTYuNjgtNi44OC0xMC0xMC4xMS0yLjU3LTIuNTEtNi4wOS0yLjU3LTguMzktLjMzcy0yLjMxLDUuOS4zMyw4LjU4cTYuNzYsNi44NywxMy42NCwxMy42NGMyLjg1LDIuOCw2LDIuODcsOC43NC4xcTE4LjcyLTE4LjYxLDM3LjMzLTM3LjMyYzIuNTUtMi41NiwyLjY0LTYuMDUuMzktOC4zOHMtNS44Ni0yLjM3LTguNTYuMjhDMjI0LjEsNDQuNTMsMjAyLjA1LDY2LjY4LDE5NS4yNiw3My41WiIgY2xhc3M9ImNscy0zIi8+PHBhdGggdHJhbnNmb3JtPSJ0cmFuc2xhdGUoMCAwKSIgZD0iTTEwMC4yOCwxNjYuMjJsNy41OCwzLjlDMTA1LDE3NC41OCw5OC45NCwxNzgsOTAuNzUsMTc4Yy0xMS40MywwLTE5LjEzLTUuOTMtMTkuMTMtMTYuMTVzNy43LTE2LjE1LDE5LjQ4LTE2LjE1YzcuODQsMCwxMy45LDMuNTUsMTYuNjMsNy44OGwtNy42MiwzLjljLTItMy4xMi01LjA3LTQuNTktOS4xNC00LjU5LTYuMjMsMC0xMC4zOSwzLjE2LTEwLjM5LDlzNC4xNiw5LDEwLjM5LDlDOTUsMTcwLjg1LDk4LjE2LDE2OS40NywxMDAuMjgsMTY2LjIyWiIgY2xhc3M9ImNscy0xIi8+PHBhdGggdHJhbnNmb3JtPSJ0cmFuc2xhdGUoMCAwKSIgZD0iTTExNC41NSwxNjEuODljMC0xMC4yNiw3Ljc1LTE2LjE1LDE5Ljc1LTE2LjE1czE5Ljc5LDUuODksMTkuNzksMTYuMTVTMTQ2LjI5LDE3OCwxMzQuMywxNzgsMTE0LjU1LDE3Mi4xNSwxMTQuNTUsMTYxLjg5Wm0zMC41MywwYzAtNS43MS00LjEyLTktMTAuNzgtOXMtMTAuNzgsMy4yNS0xMC43OCw5LDQuMTEsOSwxMC43OCw5UzE0NS4wOCwxNjcuNjEsMTQ1LjA4LDE2MS44OVoiIGNsYXNzPSJjbHMtMSIvPjxwYXRoIHRyYW5zZm9ybT0idHJhbnNsYXRlKDAgMCkiIGQ9Ik0xOTguNjIsMTU3LjM0YzAsNy4wNi01LjUsMTAuNjEtMTMuNzYsMTAuNjFIMTcyLjY0VjE3N2gtOC44M1YxNDYuNzNoMjEuMDVDMTkzLjEyLDE0Ni43MywxOTguNjIsMTUwLjM3LDE5OC42MiwxNTcuMzRabS05LC4xOGMwLTMuMDgtMi4yNS00LjA3LTUuNTQtNC4wN0gxNzIuNjR2OC4xaDExLjQ4QzE4Ny40MSwxNjEuNTUsMTg5LjY2LDE2MC41NSwxODkuNjYsMTU3LjUyWiIgY2xhc3M9ImNscy0xIi8+PHBhdGggdHJhbnNmb3JtPSJ0cmFuc2xhdGUoMCAwKSIgZD0iTTIwNy42MSwxNzdWMTQ2LjczaDguODNWMTc3WiIgY2xhc3M9ImNscy0xIi8+PHBhdGggdHJhbnNmb3JtPSJ0cmFuc2xhdGUoMCAwKSIgZD0iTTI1Ny4xNSwxNjkuOTRWMTc3SDIyNy45MlYxNDYuNzNoOC44NHYyMy4yMVoiIGNsYXNzPSJjbHMtMSIvPjxwYXRoIHRyYW5zZm9ybT0idHJhbnNsYXRlKDAgMCkiIGQ9Ik0yNjMuMDcsMTYxLjg5YzAtMTAuMjYsNy43NC0xNi4xNSwxOS43NC0xNi4xNXMxOS43OSw1Ljg5LDE5Ljc5LDE2LjE1UzI5NC44LDE3OCwyODIuODEsMTc4LDI2My4wNywxNzIuMTUsMjYzLjA3LDE2MS44OVptMzAuNTIsMGMwLTUuNzEtNC4xMS05LTEwLjc4LTlzLTEwLjc4LDMuMjUtMTAuNzgsOSw0LjExLDksMTAuNzgsOVMyOTMuNTksMTY3LjYxLDI5My41OSwxNjEuODlaIiBjbGFzcz0iY2xzLTEiLz48cGF0aCB0cmFuc2Zvcm09InRyYW5zbGF0ZSgwIDApIiBkPSJNMzQyLjQ2LDE1My43OWgtMTIuNlYxNzdIMzIxVjE1My43OUgzMDguNTF2LTcuMDZoMzMuOTVaIiBjbGFzcz0iY2xzLTEiLz48cGF0aCB0cmFuc2Zvcm09InRyYW5zbGF0ZSgwIDApIiBkPSJNMzU4LjA2LDE1MC40YzAsMi45Mi0yLjUxLDQuNjUtNS4zMiw0LjY1cy01LjI5LTEuNzMtNS4yOS00LjY1LDIuNDctNC42Niw1LjI5LTQuNjZTMzU4LjA2LDE0Ny40OCwzNTguMDYsMTUwLjRabS0uNzgsMGMwLTIuNTgtMi4wNy00LTQuNTItNHMtNC41MywxLjM5LTQuNTMsNCwyLjA2LDQsNC41Myw0UzM1Ny4yOCwxNTMsMzU3LjI4LDE1MC40Wm0tMi45LjY1LDEuMzksMS42SDM1NGwtMS4yNS0xLjQ3aC0xLjF2MS40N2gtMS41NHYtNC43N2gzLjI5YzEuMjUsMCwyLjIxLjU1LDIuMjEsMS42NUExLjU1LDEuNTUsMCwwLDEsMzU0LjM4LDE1MS4wNVptLTIuNy0uODloMS41MWMuNTYsMCwuODctLjE1Ljg3LS41OXMtLjMxLS42LS44Ny0uNmgtMS41MVoiIGNsYXNzPSJjbHMtMSIvPjwvc3ZnPg==" vertex="1" parent="1">
          <mxGeometry x="20" y="20" width="162.81" height="70" as="geometry" />
        </mxCell>
        <mxCell id="sbZIVBN3rdydgRw7UAop-25" style="edgeStyle=orthogonalEdgeStyle;rounded=0;orthogonalLoop=1;jettySize=auto;html=1;startArrow=classic;startFill=1;" edge="1" parent="1" source="sbZIVBN3rdydgRw7UAop-22" target="sbZIVBN3rdydgRw7UAop-3">
          <mxGeometry relative="1" as="geometry" />
        </mxCell>
        <mxCell id="sbZIVBN3rdydgRw7UAop-22" value="JSON" style="shape=document;whiteSpace=wrap;html=1;boundedLbl=1;" vertex="1" parent="1">
          <mxGeometry x="475" y="260" width="120" height="80" as="geometry" />
        </mxCell>
        <mxCell id="sbZIVBN3rdydgRw7UAop-23" value="Web Server" style="text;html=1;strokeColor=none;fillColor=none;align=center;verticalAlign=middle;whiteSpace=wrap;rounded=0;" vertex="1" parent="1">
          <mxGeometry x="320" y="192" width="80" height="29" as="geometry" />
        </mxCell>
        <mxCell id="sbZIVBN3rdydgRw7UAop-24" style="edgeStyle=orthogonalEdgeStyle;rounded=0;orthogonalLoop=1;jettySize=auto;html=1;startArrow=classic;startFill=1;" edge="1" parent="1" source="sbZIVBN3rdydgRw7UAop-11" target="sbZIVBN3rdydgRw7UAop-22">
          <mxGeometry relative="1" as="geometry" />
        </mxCell>
        <mxCell id="sbZIVBN3rdydgRw7UAop-27" value="HTTP&lt;br&gt;- Synchronous &quot;REST-ish&quot; API&lt;br&gt;- Asynchronous, bi-directional WebSocket" style="text;html=1;strokeColor=none;fillColor=none;align=center;verticalAlign=middle;whiteSpace=wrap;rounded=0;" vertex="1" parent="1">
          <mxGeometry x="550" y="270" width="360" height="60" as="geometry" />
        </mxCell>
        <mxCell id="sbZIVBN3rdydgRw7UAop-29" value="Front end" style="text;html=1;strokeColor=none;fillColor=none;align=center;verticalAlign=middle;whiteSpace=wrap;rounded=0;" vertex="1" parent="1">
          <mxGeometry x="320" y="30" width="60" height="30" as="geometry" />
        </mxCell>
        <mxCell id="sbZIVBN3rdydgRw7UAop-50" value="Middle Layer" style="text;html=1;strokeColor=none;fillColor=none;align=center;verticalAlign=middle;whiteSpace=wrap;rounded=0;" vertex="1" parent="1">
          <mxGeometry x="390" y="350" width="100" height="30" as="geometry" />
        </mxCell>
        <mxCell id="sbZIVBN3rdydgRw7UAop-51" value="" style="group" vertex="1" connectable="0" parent="1">
          <mxGeometry x="180" y="670" width="250" height="120" as="geometry" />
        </mxCell>
        <mxCell id="sbZIVBN3rdydgRw7UAop-52" value="RT Controller" style="rounded=1;whiteSpace=wrap;html=1;" vertex="1" parent="sbZIVBN3rdydgRw7UAop-51">
          <mxGeometry width="250" height="120" as="geometry" />
        </mxCell>
        <mxCell id="sbZIVBN3rdydgRw7UAop-54" value="" style="group" vertex="1" connectable="0" parent="1">
          <mxGeometry x="550" y="670" width="250" height="120" as="geometry" />
        </mxCell>
        <mxCell id="sbZIVBN3rdydgRw7UAop-55" value="RT Interface" style="rounded=1;whiteSpace=wrap;html=1;" vertex="1" parent="sbZIVBN3rdydgRw7UAop-54">
          <mxGeometry width="250" height="120" as="geometry" />
        </mxCell>
      </root>
    </mxGraphModel>
  </diagram>
</mxfile>
